solid OpenSCAD_Model
  facet normal -1 0 0
    outer loop
      vertex 0 0 0
      vertex 0 30 500
      vertex 0 30 0
    endloop
  endfacet
  facet normal -1 -0 0
    outer loop
      vertex 0 30 500
      vertex 0 0 0
      vertex 0 0 500
    endloop
  endfacet
  facet normal -0 0 1
    outer loop
      vertex 0 30 500
      vertex 30 0 500
      vertex 30 30 500
    endloop
  endfacet
  facet normal 0 0 1
    outer loop
      vertex 30 0 500
      vertex 0 30 500
      vertex 0 0 500
    endloop
  endfacet
  facet normal 1 -0 0
    outer loop
      vertex 30 0 500
      vertex 30 30 0
      vertex 30 30 500
    endloop
  endfacet
  facet normal 1 0 0
    outer loop
      vertex 30 30 0
      vertex 30 0 500
      vertex 30 0 0
    endloop
  endfacet
  facet normal 0 1 -0
    outer loop
      vertex 30 30 0
      vertex 0 30 500
      vertex 30 30 500
    endloop
  endfacet
  facet normal 0 1 0
    outer loop
      vertex 0 30 500
      vertex 30 30 0
      vertex 0 30 0
    endloop
  endfacet
  facet normal 0 0 -1
    outer loop
      vertex 0 0 0
      vertex 30 30 0
      vertex 30 0 0
    endloop
  endfacet
  facet normal -0 0 -1
    outer loop
      vertex 30 30 0
      vertex 0 0 0
      vertex 0 30 0
    endloop
  endfacet
  facet normal 0 -1 0
    outer loop
      vertex 0 0 0
      vertex 30 0 500
      vertex 0 0 500
    endloop
  endfacet
  facet normal 0 -1 -0
    outer loop
      vertex 30 0 500
      vertex 0 0 0
      vertex 30 0 0
    endloop
  endfacet
  facet normal -1 0 0
    outer loop
      vertex 0 270 0
      vertex 0 300 500
      vertex 0 300 0
    endloop
  endfacet
  facet normal -1 -0 0
    outer loop
      vertex 0 300 500
      vertex 0 270 0
      vertex 0 270 500
    endloop
  endfacet
  facet normal -0 0 1
    outer loop
      vertex 0 300 500
      vertex 30 270 500
      vertex 30 300 500
    endloop
  endfacet
  facet normal 0 0 1
    outer loop
      vertex 30 270 500
      vertex 0 300 500
      vertex 0 270 500
    endloop
  endfacet
  facet normal 1 -0 0
    outer loop
      vertex 30 270 500
      vertex 30 300 0
      vertex 30 300 500
    endloop
  endfacet
  facet normal 1 0 0
    outer loop
      vertex 30 300 0
      vertex 30 270 500
      vertex 30 270 0
    endloop
  endfacet
  facet normal 0 1 -0
    outer loop
      vertex 30 300 0
      vertex 0 300 500
      vertex 30 300 500
    endloop
  endfacet
  facet normal 0 1 0
    outer loop
      vertex 0 300 500
      vertex 30 300 0
      vertex 0 300 0
    endloop
  endfacet
  facet normal 0 0 -1
    outer loop
      vertex 0 270 0
      vertex 30 300 0
      vertex 30 270 0
    endloop
  endfacet
  facet normal -0 0 -1
    outer loop
      vertex 30 300 0
      vertex 0 270 0
      vertex 0 300 0
    endloop
  endfacet
  facet normal 0 -1 0
    outer loop
      vertex 0 270 0
      vertex 30 270 500
      vertex 0 270 500
    endloop
  endfacet
  facet normal 0 -1 -0
    outer loop
      vertex 30 270 500
      vertex 0 270 0
      vertex 30 270 0
    endloop
  endfacet
  facet normal -1 0 0
    outer loop
      vertex 30 120 0
      vertex 30 180 500
      vertex 30 180 0
    endloop
  endfacet
  facet normal -1 -0 0
    outer loop
      vertex 30 180 500
      vertex 30 120 0
      vertex 30 120 500
    endloop
  endfacet
  facet normal -0 0 1
    outer loop
      vertex 30 180 500
      vertex 60 120 500
      vertex 60 180 500
    endloop
  endfacet
  facet normal 0 0 1
    outer loop
      vertex 60 120 500
      vertex 30 180 500
      vertex 30 120 500
    endloop
  endfacet
  facet normal 1 -0 0
    outer loop
      vertex 60 120 500
      vertex 60 180 0
      vertex 60 180 500
    endloop
  endfacet
  facet normal 1 0 0
    outer loop
      vertex 60 180 0
      vertex 60 120 500
      vertex 60 120 0
    endloop
  endfacet
  facet normal 0 0 -1
    outer loop
      vertex 30 120 0
      vertex 60 180 0
      vertex 60 120 0
    endloop
  endfacet
  facet normal -0 0 -1
    outer loop
      vertex 60 180 0
      vertex 30 120 0
      vertex 30 180 0
    endloop
  endfacet
  facet normal 0 -1 0
    outer loop
      vertex 30 120 0
      vertex 60 120 500
      vertex 30 120 500
    endloop
  endfacet
  facet normal 0 -1 -0
    outer loop
      vertex 60 120 500
      vertex 30 120 0
      vertex 60 120 0
    endloop
  endfacet
  facet normal 0 1 -0
    outer loop
      vertex 60 180 0
      vertex 30 180 500
      vertex 60 180 500
    endloop
  endfacet
  facet normal 0 1 0
    outer loop
      vertex 30 180 500
      vertex 60 180 0
      vertex 30 180 0
    endloop
  endfacet
  facet normal -1 0 0
    outer loop
      vertex 60 0 0
      vertex 60 30 500
      vertex 60 30 0
    endloop
  endfacet
  facet normal -1 -0 0
    outer loop
      vertex 60 30 500
      vertex 60 0 0
      vertex 60 0 500
    endloop
  endfacet
  facet normal -0 0 1
    outer loop
      vertex 60 30 500
      vertex 90 0 500
      vertex 90 30 500
    endloop
  endfacet
  facet normal 0 0 1
    outer loop
      vertex 90 0 500
      vertex 60 30 500
      vertex 60 0 500
    endloop
  endfacet
  facet normal 1 -0 0
    outer loop
      vertex 90 0 500
      vertex 90 30 0
      vertex 90 30 500
    endloop
  endfacet
  facet normal 1 0 0
    outer loop
      vertex 90 30 0
      vertex 90 0 500
      vertex 90 0 0
    endloop
  endfacet
  facet normal 0 0 -1
    outer loop
      vertex 60 0 0
      vertex 90 30 0
      vertex 90 0 0
    endloop
  endfacet
  facet normal -0 0 -1
    outer loop
      vertex 90 30 0
      vertex 60 0 0
      vertex 60 30 0
    endloop
  endfacet
  facet normal 0 -1 0
    outer loop
      vertex 60 0 0
      vertex 90 0 500
      vertex 60 0 500
    endloop
  endfacet
  facet normal 0 -1 -0
    outer loop
      vertex 90 0 500
      vertex 60 0 0
      vertex 90 0 0
    endloop
  endfacet
  facet normal 0 1 -0
    outer loop
      vertex 90 30 0
      vertex 60 30 500
      vertex 90 30 500
    endloop
  endfacet
  facet normal 0 1 0
    outer loop
      vertex 60 30 500
      vertex 90 30 0
      vertex 60 30 0
    endloop
  endfacet
  facet normal -1 0 0
    outer loop
      vertex 60 270 0
      vertex 60 300 500
      vertex 60 300 0
    endloop
  endfacet
  facet normal -1 -0 0
    outer loop
      vertex 60 300 500
      vertex 60 270 0
      vertex 60 270 500
    endloop
  endfacet
  facet normal -0 0 1
    outer loop
      vertex 60 300 500
      vertex 90 270 500
      vertex 90 300 500
    endloop
  endfacet
  facet normal 0 0 1
    outer loop
      vertex 90 270 500
      vertex 60 300 500
      vertex 60 270 500
    endloop
  endfacet
  facet normal 1 -0 0
    outer loop
      vertex 90 270 500
      vertex 90 300 0
      vertex 90 300 500
    endloop
  endfacet
  facet normal 1 0 0
    outer loop
      vertex 90 300 0
      vertex 90 270 500
      vertex 90 270 0
    endloop
  endfacet
  facet normal 0 0 -1
    outer loop
      vertex 60 270 0
      vertex 90 300 0
      vertex 90 270 0
    endloop
  endfacet
  facet normal -0 0 -1
    outer loop
      vertex 90 300 0
      vertex 60 270 0
      vertex 60 300 0
    endloop
  endfacet
  facet normal 0 -1 0
    outer loop
      vertex 60 270 0
      vertex 90 270 500
      vertex 60 270 500
    endloop
  endfacet
  facet normal 0 -1 -0
    outer loop
      vertex 90 270 500
      vertex 60 270 0
      vertex 90 270 0
    endloop
  endfacet
  facet normal 0 1 -0
    outer loop
      vertex 90 300 0
      vertex 60 300 500
      vertex 90 300 500
    endloop
  endfacet
  facet normal 0 1 0
    outer loop
      vertex 60 300 500
      vertex 90 300 0
      vertex 60 300 0
    endloop
  endfacet
  facet normal -1 0 0
    outer loop
      vertex 90 120 0
      vertex 90 180 500
      vertex 90 180 0
    endloop
  endfacet
  facet normal -1 -0 0
    outer loop
      vertex 90 180 500
      vertex 90 120 0
      vertex 90 120 500
    endloop
  endfacet
  facet normal -0 0 1
    outer loop
      vertex 90 180 500
      vertex 120 120 500
      vertex 120 180 500
    endloop
  endfacet
  facet normal 0 0 1
    outer loop
      vertex 120 120 500
      vertex 90 180 500
      vertex 90 120 500
    endloop
  endfacet
  facet normal 1 -0 0
    outer loop
      vertex 120 120 500
      vertex 120 180 0
      vertex 120 180 500
    endloop
  endfacet
  facet normal 1 0 0
    outer loop
      vertex 120 180 0
      vertex 120 120 500
      vertex 120 120 0
    endloop
  endfacet
  facet normal 0 0 -1
    outer loop
      vertex 90 120 0
      vertex 120 180 0
      vertex 120 120 0
    endloop
  endfacet
  facet normal -0 0 -1
    outer loop
      vertex 120 180 0
      vertex 90 120 0
      vertex 90 180 0
    endloop
  endfacet
  facet normal 0 -1 0
    outer loop
      vertex 90 120 0
      vertex 120 120 500
      vertex 90 120 500
    endloop
  endfacet
  facet normal 0 -1 -0
    outer loop
      vertex 120 120 500
      vertex 90 120 0
      vertex 120 120 0
    endloop
  endfacet
  facet normal 0 1 -0
    outer loop
      vertex 120 180 0
      vertex 90 180 500
      vertex 120 180 500
    endloop
  endfacet
  facet normal 0 1 0
    outer loop
      vertex 90 180 500
      vertex 120 180 0
      vertex 90 180 0
    endloop
  endfacet
  facet normal -1 0 0
    outer loop
      vertex 120 0 0
      vertex 120 30 500
      vertex 120 30 0
    endloop
  endfacet
  facet normal -1 -0 0
    outer loop
      vertex 120 30 500
      vertex 120 0 0
      vertex 120 0 500
    endloop
  endfacet
  facet normal -0 0 1
    outer loop
      vertex 120 30 500
      vertex 150 0 500
      vertex 150 30 500
    endloop
  endfacet
  facet normal 0 0 1
    outer loop
      vertex 150 0 500
      vertex 120 30 500
      vertex 120 0 500
    endloop
  endfacet
  facet normal 1 -0 0
    outer loop
      vertex 150 0 500
      vertex 150 30 0
      vertex 150 30 500
    endloop
  endfacet
  facet normal 1 0 0
    outer loop
      vertex 150 30 0
      vertex 150 0 500
      vertex 150 0 0
    endloop
  endfacet
  facet normal 0 1 -0
    outer loop
      vertex 150 30 0
      vertex 120 30 500
      vertex 150 30 500
    endloop
  endfacet
  facet normal 0 1 0
    outer loop
      vertex 120 30 500
      vertex 150 30 0
      vertex 120 30 0
    endloop
  endfacet
  facet normal 0 0 -1
    outer loop
      vertex 120 0 0
      vertex 150 30 0
      vertex 150 0 0
    endloop
  endfacet
  facet normal -0 0 -1
    outer loop
      vertex 150 30 0
      vertex 120 0 0
      vertex 120 30 0
    endloop
  endfacet
  facet normal 0 -1 0
    outer loop
      vertex 120 0 0
      vertex 150 0 500
      vertex 120 0 500
    endloop
  endfacet
  facet normal 0 -1 -0
    outer loop
      vertex 150 0 500
      vertex 120 0 0
      vertex 150 0 0
    endloop
  endfacet
  facet normal -1 0 0
    outer loop
      vertex 120 270 0
      vertex 120 300 500
      vertex 120 300 0
    endloop
  endfacet
  facet normal -1 -0 0
    outer loop
      vertex 120 300 500
      vertex 120 270 0
      vertex 120 270 500
    endloop
  endfacet
  facet normal -0 0 1
    outer loop
      vertex 120 300 500
      vertex 150 270 500
      vertex 150 300 500
    endloop
  endfacet
  facet normal 0 0 1
    outer loop
      vertex 150 270 500
      vertex 120 300 500
      vertex 120 270 500
    endloop
  endfacet
  facet normal 1 -0 0
    outer loop
      vertex 150 270 500
      vertex 150 300 0
      vertex 150 300 500
    endloop
  endfacet
  facet normal 1 0 0
    outer loop
      vertex 150 300 0
      vertex 150 270 500
      vertex 150 270 0
    endloop
  endfacet
  facet normal 0 1 -0
    outer loop
      vertex 150 300 0
      vertex 120 300 500
      vertex 150 300 500
    endloop
  endfacet
  facet normal 0 1 0
    outer loop
      vertex 120 300 500
      vertex 150 300 0
      vertex 120 300 0
    endloop
  endfacet
  facet normal 0 0 -1
    outer loop
      vertex 120 270 0
      vertex 150 300 0
      vertex 150 270 0
    endloop
  endfacet
  facet normal -0 0 -1
    outer loop
      vertex 150 300 0
      vertex 120 270 0
      vertex 120 300 0
    endloop
  endfacet
  facet normal 0 -1 0
    outer loop
      vertex 120 270 0
      vertex 150 270 500
      vertex 120 270 500
    endloop
  endfacet
  facet normal 0 -1 -0
    outer loop
      vertex 150 270 500
      vertex 120 270 0
      vertex 150 270 0
    endloop
  endfacet
  facet normal -1 0 0
    outer loop
      vertex 150 120 0
      vertex 150 180 500
      vertex 150 180 0
    endloop
  endfacet
  facet normal -1 -0 0
    outer loop
      vertex 150 180 500
      vertex 150 120 0
      vertex 150 120 500
    endloop
  endfacet
  facet normal -0 0 1
    outer loop
      vertex 150 180 500
      vertex 180 120 500
      vertex 180 180 500
    endloop
  endfacet
  facet normal 0 0 1
    outer loop
      vertex 180 120 500
      vertex 150 180 500
      vertex 150 120 500
    endloop
  endfacet
  facet normal 1 -0 0
    outer loop
      vertex 180 120 500
      vertex 180 180 0
      vertex 180 180 500
    endloop
  endfacet
  facet normal 1 0 0
    outer loop
      vertex 180 180 0
      vertex 180 120 500
      vertex 180 120 0
    endloop
  endfacet
  facet normal 0 0 -1
    outer loop
      vertex 150 120 0
      vertex 180 180 0
      vertex 180 120 0
    endloop
  endfacet
  facet normal -0 0 -1
    outer loop
      vertex 180 180 0
      vertex 150 120 0
      vertex 150 180 0
    endloop
  endfacet
  facet normal 0 -1 0
    outer loop
      vertex 150 120 0
      vertex 180 120 500
      vertex 150 120 500
    endloop
  endfacet
  facet normal 0 -1 -0
    outer loop
      vertex 180 120 500
      vertex 150 120 0
      vertex 180 120 0
    endloop
  endfacet
  facet normal 0 1 -0
    outer loop
      vertex 180 180 0
      vertex 150 180 500
      vertex 180 180 500
    endloop
  endfacet
  facet normal 0 1 0
    outer loop
      vertex 150 180 500
      vertex 180 180 0
      vertex 150 180 0
    endloop
  endfacet
  facet normal -1 0 0
    outer loop
      vertex 180 0 0
      vertex 180 30 500
      vertex 180 30 0
    endloop
  endfacet
  facet normal -1 -0 0
    outer loop
      vertex 180 30 500
      vertex 180 0 0
      vertex 180 0 500
    endloop
  endfacet
  facet normal -0 0 1
    outer loop
      vertex 180 30 500
      vertex 210 0 500
      vertex 210 30 500
    endloop
  endfacet
  facet normal 0 0 1
    outer loop
      vertex 210 0 500
      vertex 180 30 500
      vertex 180 0 500
    endloop
  endfacet
  facet normal 1 -0 0
    outer loop
      vertex 210 0 500
      vertex 210 30 0
      vertex 210 30 500
    endloop
  endfacet
  facet normal 1 0 0
    outer loop
      vertex 210 30 0
      vertex 210 0 500
      vertex 210 0 0
    endloop
  endfacet
  facet normal 0 1 -0
    outer loop
      vertex 210 30 0
      vertex 180 30 500
      vertex 210 30 500
    endloop
  endfacet
  facet normal 0 1 0
    outer loop
      vertex 180 30 500
      vertex 210 30 0
      vertex 180 30 0
    endloop
  endfacet
  facet normal 0 0 -1
    outer loop
      vertex 180 0 0
      vertex 210 30 0
      vertex 210 0 0
    endloop
  endfacet
  facet normal -0 0 -1
    outer loop
      vertex 210 30 0
      vertex 180 0 0
      vertex 180 30 0
    endloop
  endfacet
  facet normal 0 -1 0
    outer loop
      vertex 180 0 0
      vertex 210 0 500
      vertex 180 0 500
    endloop
  endfacet
  facet normal 0 -1 -0
    outer loop
      vertex 210 0 500
      vertex 180 0 0
      vertex 210 0 0
    endloop
  endfacet
  facet normal -1 0 0
    outer loop
      vertex 180 270 0
      vertex 180 300 500
      vertex 180 300 0
    endloop
  endfacet
  facet normal -1 -0 0
    outer loop
      vertex 180 300 500
      vertex 180 270 0
      vertex 180 270 500
    endloop
  endfacet
  facet normal -0 0 1
    outer loop
      vertex 180 300 500
      vertex 210 270 500
      vertex 210 300 500
    endloop
  endfacet
  facet normal 0 0 1
    outer loop
      vertex 210 270 500
      vertex 180 300 500
      vertex 180 270 500
    endloop
  endfacet
  facet normal 1 -0 0
    outer loop
      vertex 210 270 500
      vertex 210 300 0
      vertex 210 300 500
    endloop
  endfacet
  facet normal 1 0 0
    outer loop
      vertex 210 300 0
      vertex 210 270 500
      vertex 210 270 0
    endloop
  endfacet
  facet normal 0 1 -0
    outer loop
      vertex 210 300 0
      vertex 180 300 500
      vertex 210 300 500
    endloop
  endfacet
  facet normal 0 1 0
    outer loop
      vertex 180 300 500
      vertex 210 300 0
      vertex 180 300 0
    endloop
  endfacet
  facet normal 0 0 -1
    outer loop
      vertex 180 270 0
      vertex 210 300 0
      vertex 210 270 0
    endloop
  endfacet
  facet normal -0 0 -1
    outer loop
      vertex 210 300 0
      vertex 180 270 0
      vertex 180 300 0
    endloop
  endfacet
  facet normal 0 -1 0
    outer loop
      vertex 180 270 0
      vertex 210 270 500
      vertex 180 270 500
    endloop
  endfacet
  facet normal 0 -1 -0
    outer loop
      vertex 210 270 500
      vertex 180 270 0
      vertex 210 270 0
    endloop
  endfacet
  facet normal -1 0 0
    outer loop
      vertex 210 120 0
      vertex 210 180 500
      vertex 210 180 0
    endloop
  endfacet
  facet normal -1 -0 0
    outer loop
      vertex 210 180 500
      vertex 210 120 0
      vertex 210 120 500
    endloop
  endfacet
  facet normal -0 0 1
    outer loop
      vertex 210 180 500
      vertex 240 120 500
      vertex 240 180 500
    endloop
  endfacet
  facet normal 0 0 1
    outer loop
      vertex 240 120 500
      vertex 210 180 500
      vertex 210 120 500
    endloop
  endfacet
  facet normal 1 -0 0
    outer loop
      vertex 240 120 500
      vertex 240 180 0
      vertex 240 180 500
    endloop
  endfacet
  facet normal 1 0 0
    outer loop
      vertex 240 180 0
      vertex 240 120 500
      vertex 240 120 0
    endloop
  endfacet
  facet normal 0 0 -1
    outer loop
      vertex 210 120 0
      vertex 240 180 0
      vertex 240 120 0
    endloop
  endfacet
  facet normal -0 0 -1
    outer loop
      vertex 240 180 0
      vertex 210 120 0
      vertex 210 180 0
    endloop
  endfacet
  facet normal 0 -1 0
    outer loop
      vertex 210 120 0
      vertex 240 120 500
      vertex 210 120 500
    endloop
  endfacet
  facet normal 0 -1 -0
    outer loop
      vertex 240 120 500
      vertex 210 120 0
      vertex 240 120 0
    endloop
  endfacet
  facet normal 0 1 -0
    outer loop
      vertex 240 180 0
      vertex 210 180 500
      vertex 240 180 500
    endloop
  endfacet
  facet normal 0 1 0
    outer loop
      vertex 210 180 500
      vertex 240 180 0
      vertex 210 180 0
    endloop
  endfacet
  facet normal -1 0 0
    outer loop
      vertex 240 0 0
      vertex 240 30 500
      vertex 240 30 0
    endloop
  endfacet
  facet normal -1 -0 0
    outer loop
      vertex 240 30 500
      vertex 240 0 0
      vertex 240 0 500
    endloop
  endfacet
  facet normal -0 0 1
    outer loop
      vertex 240 30 500
      vertex 270 0 500
      vertex 270 30 500
    endloop
  endfacet
  facet normal 0 0 1
    outer loop
      vertex 270 0 500
      vertex 240 30 500
      vertex 240 0 500
    endloop
  endfacet
  facet normal 1 -0 0
    outer loop
      vertex 270 0 500
      vertex 270 30 0
      vertex 270 30 500
    endloop
  endfacet
  facet normal 1 0 0
    outer loop
      vertex 270 30 0
      vertex 270 0 500
      vertex 270 0 0
    endloop
  endfacet
  facet normal 0 1 -0
    outer loop
      vertex 270 30 0
      vertex 240 30 500
      vertex 270 30 500
    endloop
  endfacet
  facet normal 0 1 0
    outer loop
      vertex 240 30 500
      vertex 270 30 0
      vertex 240 30 0
    endloop
  endfacet
  facet normal 0 0 -1
    outer loop
      vertex 240 0 0
      vertex 270 30 0
      vertex 270 0 0
    endloop
  endfacet
  facet normal -0 0 -1
    outer loop
      vertex 270 30 0
      vertex 240 0 0
      vertex 240 30 0
    endloop
  endfacet
  facet normal 0 -1 0
    outer loop
      vertex 240 0 0
      vertex 270 0 500
      vertex 240 0 500
    endloop
  endfacet
  facet normal 0 -1 -0
    outer loop
      vertex 270 0 500
      vertex 240 0 0
      vertex 270 0 0
    endloop
  endfacet
  facet normal -1 0 0
    outer loop
      vertex 240 270 0
      vertex 240 300 500
      vertex 240 300 0
    endloop
  endfacet
  facet normal -1 -0 0
    outer loop
      vertex 240 300 500
      vertex 240 270 0
      vertex 240 270 500
    endloop
  endfacet
  facet normal -0 0 1
    outer loop
      vertex 240 300 500
      vertex 270 270 500
      vertex 270 300 500
    endloop
  endfacet
  facet normal 0 0 1
    outer loop
      vertex 270 270 500
      vertex 240 300 500
      vertex 240 270 500
    endloop
  endfacet
  facet normal 1 -0 0
    outer loop
      vertex 270 270 500
      vertex 270 300 0
      vertex 270 300 500
    endloop
  endfacet
  facet normal 1 0 0
    outer loop
      vertex 270 300 0
      vertex 270 270 500
      vertex 270 270 0
    endloop
  endfacet
  facet normal 0 0 -1
    outer loop
      vertex 240 270 0
      vertex 270 300 0
      vertex 270 270 0
    endloop
  endfacet
  facet normal -0 0 -1
    outer loop
      vertex 270 300 0
      vertex 240 270 0
      vertex 240 300 0
    endloop
  endfacet
  facet normal 0 -1 0
    outer loop
      vertex 240 270 0
      vertex 270 270 500
      vertex 240 270 500
    endloop
  endfacet
  facet normal 0 -1 -0
    outer loop
      vertex 270 270 500
      vertex 240 270 0
      vertex 270 270 0
    endloop
  endfacet
  facet normal 0 1 -0
    outer loop
      vertex 270 300 0
      vertex 240 300 500
      vertex 270 300 500
    endloop
  endfacet
  facet normal 0 1 0
    outer loop
      vertex 240 300 500
      vertex 270 300 0
      vertex 240 300 0
    endloop
  endfacet
  facet normal -1 0 0
    outer loop
      vertex 270 120 0
      vertex 270 180 500
      vertex 270 180 0
    endloop
  endfacet
  facet normal -1 -0 0
    outer loop
      vertex 270 180 500
      vertex 270 120 0
      vertex 270 120 500
    endloop
  endfacet
  facet normal -0 0 1
    outer loop
      vertex 270 180 500
      vertex 300 120 500
      vertex 300 180 500
    endloop
  endfacet
  facet normal 0 0 1
    outer loop
      vertex 300 120 500
      vertex 270 180 500
      vertex 270 120 500
    endloop
  endfacet
  facet normal 1 -0 0
    outer loop
      vertex 300 120 500
      vertex 300 180 0
      vertex 300 180 500
    endloop
  endfacet
  facet normal 1 0 0
    outer loop
      vertex 300 180 0
      vertex 300 120 500
      vertex 300 120 0
    endloop
  endfacet
  facet normal 0 0 -1
    outer loop
      vertex 270 120 0
      vertex 300 180 0
      vertex 300 120 0
    endloop
  endfacet
  facet normal -0 0 -1
    outer loop
      vertex 300 180 0
      vertex 270 120 0
      vertex 270 180 0
    endloop
  endfacet
  facet normal 0 -1 0
    outer loop
      vertex 270 120 0
      vertex 300 120 500
      vertex 270 120 500
    endloop
  endfacet
  facet normal 0 -1 -0
    outer loop
      vertex 300 120 500
      vertex 270 120 0
      vertex 300 120 0
    endloop
  endfacet
  facet normal 0 1 -0
    outer loop
      vertex 300 180 0
      vertex 270 180 500
      vertex 300 180 500
    endloop
  endfacet
  facet normal 0 1 0
    outer loop
      vertex 270 180 500
      vertex 300 180 0
      vertex 270 180 0
    endloop
  endfacet
endsolid OpenSCAD_Model
