solid OpenSCAD_Model
  facet normal -1 0 0
    outer loop
      vertex 0 0 0
      vertex 0 10 200
      vertex 0 10 0
    endloop
  endfacet
  facet normal -1 -0 0
    outer loop
      vertex 0 10 200
      vertex 0 0 0
      vertex 0 0 200
    endloop
  endfacet
  facet normal -0 0 1
    outer loop
      vertex 0 10 200
      vertex 12.5 0 200
      vertex 12.5 10 200
    endloop
  endfacet
  facet normal 0 0 1
    outer loop
      vertex 12.5 0 200
      vertex 0 10 200
      vertex 0 0 200
    endloop
  endfacet
  facet normal 1 -0 0
    outer loop
      vertex 12.5 0 200
      vertex 12.5 10 0
      vertex 12.5 10 200
    endloop
  endfacet
  facet normal 1 0 0
    outer loop
      vertex 12.5 10 0
      vertex 12.5 0 200
      vertex 12.5 0 0
    endloop
  endfacet
  facet normal 0 1 -0
    outer loop
      vertex 12.5 10 0
      vertex 0 10 200
      vertex 12.5 10 200
    endloop
  endfacet
  facet normal 0 1 0
    outer loop
      vertex 0 10 200
      vertex 12.5 10 0
      vertex 0 10 0
    endloop
  endfacet
  facet normal 0 0 -1
    outer loop
      vertex 0 0 0
      vertex 12.5 10 0
      vertex 12.5 0 0
    endloop
  endfacet
  facet normal -0 0 -1
    outer loop
      vertex 12.5 10 0
      vertex 0 0 0
      vertex 0 10 0
    endloop
  endfacet
  facet normal 0 -1 0
    outer loop
      vertex 0 0 0
      vertex 12.5 0 200
      vertex 0 0 200
    endloop
  endfacet
  facet normal 0 -1 -0
    outer loop
      vertex 12.5 0 200
      vertex 0 0 0
      vertex 12.5 0 0
    endloop
  endfacet
  facet normal -1 0 0
    outer loop
      vertex 0 20 0
      vertex 0 30 200
      vertex 0 30 0
    endloop
  endfacet
  facet normal -1 -0 0
    outer loop
      vertex 0 30 200
      vertex 0 20 0
      vertex 0 20 200
    endloop
  endfacet
  facet normal -0 0 1
    outer loop
      vertex 0 30 200
      vertex 12.5 20 200
      vertex 12.5 30 200
    endloop
  endfacet
  facet normal 0 0 1
    outer loop
      vertex 12.5 20 200
      vertex 0 30 200
      vertex 0 20 200
    endloop
  endfacet
  facet normal 1 -0 0
    outer loop
      vertex 12.5 20 200
      vertex 12.5 30 0
      vertex 12.5 30 200
    endloop
  endfacet
  facet normal 1 0 0
    outer loop
      vertex 12.5 30 0
      vertex 12.5 20 200
      vertex 12.5 20 0
    endloop
  endfacet
  facet normal 0 1 -0
    outer loop
      vertex 12.5 30 0
      vertex 0 30 200
      vertex 12.5 30 200
    endloop
  endfacet
  facet normal 0 1 0
    outer loop
      vertex 0 30 200
      vertex 12.5 30 0
      vertex 0 30 0
    endloop
  endfacet
  facet normal 0 0 -1
    outer loop
      vertex 0 20 0
      vertex 12.5 30 0
      vertex 12.5 20 0
    endloop
  endfacet
  facet normal -0 0 -1
    outer loop
      vertex 12.5 30 0
      vertex 0 20 0
      vertex 0 30 0
    endloop
  endfacet
  facet normal 0 -1 0
    outer loop
      vertex 0 20 0
      vertex 12.5 20 200
      vertex 0 20 200
    endloop
  endfacet
  facet normal 0 -1 -0
    outer loop
      vertex 12.5 20 200
      vertex 0 20 0
      vertex 12.5 20 0
    endloop
  endfacet
  facet normal -1 0 0
    outer loop
      vertex 0 40 0
      vertex 0 50 200
      vertex 0 50 0
    endloop
  endfacet
  facet normal -1 -0 0
    outer loop
      vertex 0 50 200
      vertex 0 40 0
      vertex 0 40 200
    endloop
  endfacet
  facet normal -0 0 1
    outer loop
      vertex 0 50 200
      vertex 12.5 40 200
      vertex 12.5 50 200
    endloop
  endfacet
  facet normal 0 0 1
    outer loop
      vertex 12.5 40 200
      vertex 0 50 200
      vertex 0 40 200
    endloop
  endfacet
  facet normal 1 -0 0
    outer loop
      vertex 12.5 40 200
      vertex 12.5 50 0
      vertex 12.5 50 200
    endloop
  endfacet
  facet normal 1 0 0
    outer loop
      vertex 12.5 50 0
      vertex 12.5 40 200
      vertex 12.5 40 0
    endloop
  endfacet
  facet normal 0 1 -0
    outer loop
      vertex 12.5 50 0
      vertex 0 50 200
      vertex 12.5 50 200
    endloop
  endfacet
  facet normal 0 1 0
    outer loop
      vertex 0 50 200
      vertex 12.5 50 0
      vertex 0 50 0
    endloop
  endfacet
  facet normal 0 0 -1
    outer loop
      vertex 0 40 0
      vertex 12.5 50 0
      vertex 12.5 40 0
    endloop
  endfacet
  facet normal -0 0 -1
    outer loop
      vertex 12.5 50 0
      vertex 0 40 0
      vertex 0 50 0
    endloop
  endfacet
  facet normal 0 -1 0
    outer loop
      vertex 0 40 0
      vertex 12.5 40 200
      vertex 0 40 200
    endloop
  endfacet
  facet normal 0 -1 -0
    outer loop
      vertex 12.5 40 200
      vertex 0 40 0
      vertex 12.5 40 0
    endloop
  endfacet
  facet normal -1 0 0
    outer loop
      vertex 0 60 0
      vertex 0 70 200
      vertex 0 70 0
    endloop
  endfacet
  facet normal -1 -0 0
    outer loop
      vertex 0 70 200
      vertex 0 60 0
      vertex 0 60 200
    endloop
  endfacet
  facet normal -0 0 1
    outer loop
      vertex 0 70 200
      vertex 12.5 60 200
      vertex 12.5 70 200
    endloop
  endfacet
  facet normal 0 0 1
    outer loop
      vertex 12.5 60 200
      vertex 0 70 200
      vertex 0 60 200
    endloop
  endfacet
  facet normal 1 -0 0
    outer loop
      vertex 12.5 60 200
      vertex 12.5 70 0
      vertex 12.5 70 200
    endloop
  endfacet
  facet normal 1 0 0
    outer loop
      vertex 12.5 70 0
      vertex 12.5 60 200
      vertex 12.5 60 0
    endloop
  endfacet
  facet normal 0 1 -0
    outer loop
      vertex 12.5 70 0
      vertex 0 70 200
      vertex 12.5 70 200
    endloop
  endfacet
  facet normal 0 1 0
    outer loop
      vertex 0 70 200
      vertex 12.5 70 0
      vertex 0 70 0
    endloop
  endfacet
  facet normal 0 0 -1
    outer loop
      vertex 0 60 0
      vertex 12.5 70 0
      vertex 12.5 60 0
    endloop
  endfacet
  facet normal -0 0 -1
    outer loop
      vertex 12.5 70 0
      vertex 0 60 0
      vertex 0 70 0
    endloop
  endfacet
  facet normal 0 -1 0
    outer loop
      vertex 0 60 0
      vertex 12.5 60 200
      vertex 0 60 200
    endloop
  endfacet
  facet normal 0 -1 -0
    outer loop
      vertex 12.5 60 200
      vertex 0 60 0
      vertex 12.5 60 0
    endloop
  endfacet
  facet normal -1 0 0
    outer loop
      vertex 0 80 0
      vertex 0 90 200
      vertex 0 90 0
    endloop
  endfacet
  facet normal -1 -0 0
    outer loop
      vertex 0 90 200
      vertex 0 80 0
      vertex 0 80 200
    endloop
  endfacet
  facet normal -0 0 1
    outer loop
      vertex 0 90 200
      vertex 12.5 80 200
      vertex 12.5 90 200
    endloop
  endfacet
  facet normal 0 0 1
    outer loop
      vertex 12.5 80 200
      vertex 0 90 200
      vertex 0 80 200
    endloop
  endfacet
  facet normal 1 -0 0
    outer loop
      vertex 12.5 80 200
      vertex 12.5 90 0
      vertex 12.5 90 200
    endloop
  endfacet
  facet normal 1 0 0
    outer loop
      vertex 12.5 90 0
      vertex 12.5 80 200
      vertex 12.5 80 0
    endloop
  endfacet
  facet normal 0 0 -1
    outer loop
      vertex 0 80 0
      vertex 12.5 90 0
      vertex 12.5 80 0
    endloop
  endfacet
  facet normal -0 0 -1
    outer loop
      vertex 12.5 90 0
      vertex 0 80 0
      vertex 0 90 0
    endloop
  endfacet
  facet normal 0 -1 0
    outer loop
      vertex 0 80 0
      vertex 12.5 80 200
      vertex 0 80 200
    endloop
  endfacet
  facet normal 0 -1 -0
    outer loop
      vertex 12.5 80 200
      vertex 0 80 0
      vertex 12.5 80 0
    endloop
  endfacet
  facet normal 0 1 -0
    outer loop
      vertex 12.5 90 0
      vertex 0 90 200
      vertex 12.5 90 200
    endloop
  endfacet
  facet normal 0 1 0
    outer loop
      vertex 0 90 200
      vertex 12.5 90 0
      vertex 0 90 0
    endloop
  endfacet
  facet normal -1 0 0
    outer loop
      vertex 0 100 0
      vertex 0 110 200
      vertex 0 110 0
    endloop
  endfacet
  facet normal -1 -0 0
    outer loop
      vertex 0 110 200
      vertex 0 100 0
      vertex 0 100 200
    endloop
  endfacet
  facet normal -0 0 1
    outer loop
      vertex 0 110 200
      vertex 12.5 100 200
      vertex 12.5 110 200
    endloop
  endfacet
  facet normal 0 0 1
    outer loop
      vertex 12.5 100 200
      vertex 0 110 200
      vertex 0 100 200
    endloop
  endfacet
  facet normal 1 -0 0
    outer loop
      vertex 12.5 100 200
      vertex 12.5 110 0
      vertex 12.5 110 200
    endloop
  endfacet
  facet normal 1 0 0
    outer loop
      vertex 12.5 110 0
      vertex 12.5 100 200
      vertex 12.5 100 0
    endloop
  endfacet
  facet normal 0 1 -0
    outer loop
      vertex 12.5 110 0
      vertex 0 110 200
      vertex 12.5 110 200
    endloop
  endfacet
  facet normal 0 1 0
    outer loop
      vertex 0 110 200
      vertex 12.5 110 0
      vertex 0 110 0
    endloop
  endfacet
  facet normal 0 0 -1
    outer loop
      vertex 0 100 0
      vertex 12.5 110 0
      vertex 12.5 100 0
    endloop
  endfacet
  facet normal -0 0 -1
    outer loop
      vertex 12.5 110 0
      vertex 0 100 0
      vertex 0 110 0
    endloop
  endfacet
  facet normal 0 -1 0
    outer loop
      vertex 0 100 0
      vertex 12.5 100 200
      vertex 0 100 200
    endloop
  endfacet
  facet normal 0 -1 -0
    outer loop
      vertex 12.5 100 200
      vertex 0 100 0
      vertex 12.5 100 0
    endloop
  endfacet
  facet normal -1 0 0
    outer loop
      vertex 0 120 0
      vertex 0 130 200
      vertex 0 130 0
    endloop
  endfacet
  facet normal -1 -0 0
    outer loop
      vertex 0 130 200
      vertex 0 120 0
      vertex 0 120 200
    endloop
  endfacet
  facet normal -0 0 1
    outer loop
      vertex 0 130 200
      vertex 12.5 120 200
      vertex 12.5 130 200
    endloop
  endfacet
  facet normal 0 0 1
    outer loop
      vertex 12.5 120 200
      vertex 0 130 200
      vertex 0 120 200
    endloop
  endfacet
  facet normal 1 -0 0
    outer loop
      vertex 12.5 120 200
      vertex 12.5 130 0
      vertex 12.5 130 200
    endloop
  endfacet
  facet normal 1 0 0
    outer loop
      vertex 12.5 130 0
      vertex 12.5 120 200
      vertex 12.5 120 0
    endloop
  endfacet
  facet normal 0 1 -0
    outer loop
      vertex 12.5 130 0
      vertex 0 130 200
      vertex 12.5 130 200
    endloop
  endfacet
  facet normal 0 1 0
    outer loop
      vertex 0 130 200
      vertex 12.5 130 0
      vertex 0 130 0
    endloop
  endfacet
  facet normal 0 0 -1
    outer loop
      vertex 0 120 0
      vertex 12.5 130 0
      vertex 12.5 120 0
    endloop
  endfacet
  facet normal -0 0 -1
    outer loop
      vertex 12.5 130 0
      vertex 0 120 0
      vertex 0 130 0
    endloop
  endfacet
  facet normal 0 -1 0
    outer loop
      vertex 0 120 0
      vertex 12.5 120 200
      vertex 0 120 200
    endloop
  endfacet
  facet normal 0 -1 -0
    outer loop
      vertex 12.5 120 200
      vertex 0 120 0
      vertex 12.5 120 0
    endloop
  endfacet
  facet normal -1 0 0
    outer loop
      vertex 0 140 0
      vertex 0 150 200
      vertex 0 150 0
    endloop
  endfacet
  facet normal -1 -0 0
    outer loop
      vertex 0 150 200
      vertex 0 140 0
      vertex 0 140 200
    endloop
  endfacet
  facet normal -0 0 1
    outer loop
      vertex 0 150 200
      vertex 12.5 140 200
      vertex 12.5 150 200
    endloop
  endfacet
  facet normal 0 0 1
    outer loop
      vertex 12.5 140 200
      vertex 0 150 200
      vertex 0 140 200
    endloop
  endfacet
  facet normal 1 -0 0
    outer loop
      vertex 12.5 140 200
      vertex 12.5 150 0
      vertex 12.5 150 200
    endloop
  endfacet
  facet normal 1 0 0
    outer loop
      vertex 12.5 150 0
      vertex 12.5 140 200
      vertex 12.5 140 0
    endloop
  endfacet
  facet normal 0 0 -1
    outer loop
      vertex 0 140 0
      vertex 12.5 150 0
      vertex 12.5 140 0
    endloop
  endfacet
  facet normal -0 0 -1
    outer loop
      vertex 12.5 150 0
      vertex 0 140 0
      vertex 0 150 0
    endloop
  endfacet
  facet normal 0 -1 0
    outer loop
      vertex 0 140 0
      vertex 12.5 140 200
      vertex 0 140 200
    endloop
  endfacet
  facet normal 0 -1 -0
    outer loop
      vertex 12.5 140 200
      vertex 0 140 0
      vertex 12.5 140 0
    endloop
  endfacet
  facet normal 0 1 -0
    outer loop
      vertex 12.5 150 0
      vertex 0 150 200
      vertex 12.5 150 200
    endloop
  endfacet
  facet normal 0 1 0
    outer loop
      vertex 0 150 200
      vertex 12.5 150 0
      vertex 0 150 0
    endloop
  endfacet
  facet normal -1 0 0
    outer loop
      vertex 0 160 0
      vertex 0 170 200
      vertex 0 170 0
    endloop
  endfacet
  facet normal -1 -0 0
    outer loop
      vertex 0 170 200
      vertex 0 160 0
      vertex 0 160 200
    endloop
  endfacet
  facet normal -0 0 1
    outer loop
      vertex 0 170 200
      vertex 12.5 160 200
      vertex 12.5 170 200
    endloop
  endfacet
  facet normal 0 0 1
    outer loop
      vertex 12.5 160 200
      vertex 0 170 200
      vertex 0 160 200
    endloop
  endfacet
  facet normal 1 -0 0
    outer loop
      vertex 12.5 160 200
      vertex 12.5 170 0
      vertex 12.5 170 200
    endloop
  endfacet
  facet normal 1 0 0
    outer loop
      vertex 12.5 170 0
      vertex 12.5 160 200
      vertex 12.5 160 0
    endloop
  endfacet
  facet normal 0 0 -1
    outer loop
      vertex 0 160 0
      vertex 12.5 170 0
      vertex 12.5 160 0
    endloop
  endfacet
  facet normal -0 0 -1
    outer loop
      vertex 12.5 170 0
      vertex 0 160 0
      vertex 0 170 0
    endloop
  endfacet
  facet normal 0 -1 0
    outer loop
      vertex 0 160 0
      vertex 12.5 160 200
      vertex 0 160 200
    endloop
  endfacet
  facet normal 0 -1 -0
    outer loop
      vertex 12.5 160 200
      vertex 0 160 0
      vertex 12.5 160 0
    endloop
  endfacet
  facet normal 0 1 -0
    outer loop
      vertex 12.5 170 0
      vertex 0 170 200
      vertex 12.5 170 200
    endloop
  endfacet
  facet normal 0 1 0
    outer loop
      vertex 0 170 200
      vertex 12.5 170 0
      vertex 0 170 0
    endloop
  endfacet
  facet normal -1 0 0
    outer loop
      vertex 0 180 0
      vertex 0 190 200
      vertex 0 190 0
    endloop
  endfacet
  facet normal -1 -0 0
    outer loop
      vertex 0 190 200
      vertex 0 180 0
      vertex 0 180 200
    endloop
  endfacet
  facet normal -0 0 1
    outer loop
      vertex 0 190 200
      vertex 12.5 180 200
      vertex 12.5 190 200
    endloop
  endfacet
  facet normal 0 0 1
    outer loop
      vertex 12.5 180 200
      vertex 0 190 200
      vertex 0 180 200
    endloop
  endfacet
  facet normal 1 -0 0
    outer loop
      vertex 12.5 180 200
      vertex 12.5 190 0
      vertex 12.5 190 200
    endloop
  endfacet
  facet normal 1 0 0
    outer loop
      vertex 12.5 190 0
      vertex 12.5 180 200
      vertex 12.5 180 0
    endloop
  endfacet
  facet normal 0 1 -0
    outer loop
      vertex 12.5 190 0
      vertex 0 190 200
      vertex 12.5 190 200
    endloop
  endfacet
  facet normal 0 1 0
    outer loop
      vertex 0 190 200
      vertex 12.5 190 0
      vertex 0 190 0
    endloop
  endfacet
  facet normal 0 0 -1
    outer loop
      vertex 0 180 0
      vertex 12.5 190 0
      vertex 12.5 180 0
    endloop
  endfacet
  facet normal -0 0 -1
    outer loop
      vertex 12.5 190 0
      vertex 0 180 0
      vertex 0 190 0
    endloop
  endfacet
  facet normal 0 -1 0
    outer loop
      vertex 0 180 0
      vertex 12.5 180 200
      vertex 0 180 200
    endloop
  endfacet
  facet normal 0 -1 -0
    outer loop
      vertex 12.5 180 200
      vertex 0 180 0
      vertex 12.5 180 0
    endloop
  endfacet
  facet normal -1 0 0
    outer loop
      vertex 50 10 0
      vertex 50 20 200
      vertex 50 20 0
    endloop
  endfacet
  facet normal -1 -0 0
    outer loop
      vertex 50 20 200
      vertex 50 10 0
      vertex 50 10 200
    endloop
  endfacet
  facet normal -0 0 1
    outer loop
      vertex 50 20 200
      vertex 75 10 200
      vertex 75 20 200
    endloop
  endfacet
  facet normal 0 0 1
    outer loop
      vertex 75 10 200
      vertex 50 20 200
      vertex 50 10 200
    endloop
  endfacet
  facet normal 0 1 -0
    outer loop
      vertex 75 20 0
      vertex 50 20 200
      vertex 75 20 200
    endloop
  endfacet
  facet normal 0 1 0
    outer loop
      vertex 50 20 200
      vertex 75 20 0
      vertex 50 20 0
    endloop
  endfacet
  facet normal 0 0 -1
    outer loop
      vertex 50 10 0
      vertex 75 20 0
      vertex 75 10 0
    endloop
  endfacet
  facet normal -0 0 -1
    outer loop
      vertex 75 20 0
      vertex 50 10 0
      vertex 50 20 0
    endloop
  endfacet
  facet normal 0 -1 0
    outer loop
      vertex 50 10 0
      vertex 75 10 200
      vertex 50 10 200
    endloop
  endfacet
  facet normal 0 -1 -0
    outer loop
      vertex 75 10 200
      vertex 50 10 0
      vertex 75 10 0
    endloop
  endfacet
  facet normal -1 0 0
    outer loop
      vertex 50 30 0
      vertex 50 40 200
      vertex 50 40 0
    endloop
  endfacet
  facet normal -1 -0 0
    outer loop
      vertex 50 40 200
      vertex 50 30 0
      vertex 50 30 200
    endloop
  endfacet
  facet normal -0 0 1
    outer loop
      vertex 50 40 200
      vertex 75 30 200
      vertex 75 40 200
    endloop
  endfacet
  facet normal 0 0 1
    outer loop
      vertex 75 30 200
      vertex 50 40 200
      vertex 50 30 200
    endloop
  endfacet
  facet normal 0 0 -1
    outer loop
      vertex 50 30 0
      vertex 75 40 0
      vertex 75 30 0
    endloop
  endfacet
  facet normal -0 0 -1
    outer loop
      vertex 75 40 0
      vertex 50 30 0
      vertex 50 40 0
    endloop
  endfacet
  facet normal 0 -1 0
    outer loop
      vertex 50 30 0
      vertex 75 30 200
      vertex 50 30 200
    endloop
  endfacet
  facet normal 0 -1 -0
    outer loop
      vertex 75 30 200
      vertex 50 30 0
      vertex 75 30 0
    endloop
  endfacet
  facet normal 0 1 -0
    outer loop
      vertex 75 40 0
      vertex 50 40 200
      vertex 75 40 200
    endloop
  endfacet
  facet normal 0 1 0
    outer loop
      vertex 50 40 200
      vertex 75 40 0
      vertex 50 40 0
    endloop
  endfacet
  facet normal -1 0 0
    outer loop
      vertex 50 50 0
      vertex 50 60 200
      vertex 50 60 0
    endloop
  endfacet
  facet normal -1 -0 0
    outer loop
      vertex 50 60 200
      vertex 50 50 0
      vertex 50 50 200
    endloop
  endfacet
  facet normal -0 0 1
    outer loop
      vertex 50 60 200
      vertex 75 50 200
      vertex 75 60 200
    endloop
  endfacet
  facet normal 0 0 1
    outer loop
      vertex 75 50 200
      vertex 50 60 200
      vertex 50 50 200
    endloop
  endfacet
  facet normal 0 1 -0
    outer loop
      vertex 75 60 0
      vertex 50 60 200
      vertex 75 60 200
    endloop
  endfacet
  facet normal 0 1 0
    outer loop
      vertex 50 60 200
      vertex 75 60 0
      vertex 50 60 0
    endloop
  endfacet
  facet normal 0 0 -1
    outer loop
      vertex 50 50 0
      vertex 75 60 0
      vertex 75 50 0
    endloop
  endfacet
  facet normal -0 0 -1
    outer loop
      vertex 75 60 0
      vertex 50 50 0
      vertex 50 60 0
    endloop
  endfacet
  facet normal 0 -1 0
    outer loop
      vertex 50 50 0
      vertex 75 50 200
      vertex 50 50 200
    endloop
  endfacet
  facet normal 0 -1 -0
    outer loop
      vertex 75 50 200
      vertex 50 50 0
      vertex 75 50 0
    endloop
  endfacet
  facet normal -1 0 0
    outer loop
      vertex 50 70 0
      vertex 50 80 200
      vertex 50 80 0
    endloop
  endfacet
  facet normal -1 -0 0
    outer loop
      vertex 50 80 200
      vertex 50 70 0
      vertex 50 70 200
    endloop
  endfacet
  facet normal -0 0 1
    outer loop
      vertex 50 80 200
      vertex 75 70 200
      vertex 75 80 200
    endloop
  endfacet
  facet normal 0 0 1
    outer loop
      vertex 75 70 200
      vertex 50 80 200
      vertex 50 70 200
    endloop
  endfacet
  facet normal 0 0 -1
    outer loop
      vertex 50 70 0
      vertex 75 80 0
      vertex 75 70 0
    endloop
  endfacet
  facet normal -0 0 -1
    outer loop
      vertex 75 80 0
      vertex 50 70 0
      vertex 50 80 0
    endloop
  endfacet
  facet normal 0 -1 0
    outer loop
      vertex 50 70 0
      vertex 75 70 200
      vertex 50 70 200
    endloop
  endfacet
  facet normal 0 -1 -0
    outer loop
      vertex 75 70 200
      vertex 50 70 0
      vertex 75 70 0
    endloop
  endfacet
  facet normal 0 1 -0
    outer loop
      vertex 75 80 0
      vertex 50 80 200
      vertex 75 80 200
    endloop
  endfacet
  facet normal 0 1 0
    outer loop
      vertex 50 80 200
      vertex 75 80 0
      vertex 50 80 0
    endloop
  endfacet
  facet normal -1 0 0
    outer loop
      vertex 50 90 0
      vertex 50 100 200
      vertex 50 100 0
    endloop
  endfacet
  facet normal -1 -0 0
    outer loop
      vertex 50 100 200
      vertex 50 90 0
      vertex 50 90 200
    endloop
  endfacet
  facet normal -0 0 1
    outer loop
      vertex 50 100 200
      vertex 75 90 200
      vertex 75 100 200
    endloop
  endfacet
  facet normal 0 0 1
    outer loop
      vertex 75 90 200
      vertex 50 100 200
      vertex 50 90 200
    endloop
  endfacet
  facet normal 0 1 -0
    outer loop
      vertex 75 100 0
      vertex 50 100 200
      vertex 75 100 200
    endloop
  endfacet
  facet normal 0 1 0
    outer loop
      vertex 50 100 200
      vertex 75 100 0
      vertex 50 100 0
    endloop
  endfacet
  facet normal 0 0 -1
    outer loop
      vertex 50 90 0
      vertex 75 100 0
      vertex 75 90 0
    endloop
  endfacet
  facet normal -0 0 -1
    outer loop
      vertex 75 100 0
      vertex 50 90 0
      vertex 50 100 0
    endloop
  endfacet
  facet normal 0 -1 0
    outer loop
      vertex 50 90 0
      vertex 75 90 200
      vertex 50 90 200
    endloop
  endfacet
  facet normal 0 -1 -0
    outer loop
      vertex 75 90 200
      vertex 50 90 0
      vertex 75 90 0
    endloop
  endfacet
  facet normal -1 0 0
    outer loop
      vertex 50 110 0
      vertex 50 120 200
      vertex 50 120 0
    endloop
  endfacet
  facet normal -1 -0 0
    outer loop
      vertex 50 120 200
      vertex 50 110 0
      vertex 50 110 200
    endloop
  endfacet
  facet normal -0 0 1
    outer loop
      vertex 50 120 200
      vertex 75 110 200
      vertex 75 120 200
    endloop
  endfacet
  facet normal 0 0 1
    outer loop
      vertex 75 110 200
      vertex 50 120 200
      vertex 50 110 200
    endloop
  endfacet
  facet normal 0 1 -0
    outer loop
      vertex 75 120 0
      vertex 50 120 200
      vertex 75 120 200
    endloop
  endfacet
  facet normal 0 1 0
    outer loop
      vertex 50 120 200
      vertex 75 120 0
      vertex 50 120 0
    endloop
  endfacet
  facet normal 0 0 -1
    outer loop
      vertex 50 110 0
      vertex 75 120 0
      vertex 75 110 0
    endloop
  endfacet
  facet normal -0 0 -1
    outer loop
      vertex 75 120 0
      vertex 50 110 0
      vertex 50 120 0
    endloop
  endfacet
  facet normal 0 -1 0
    outer loop
      vertex 50 110 0
      vertex 75 110 200
      vertex 50 110 200
    endloop
  endfacet
  facet normal 0 -1 -0
    outer loop
      vertex 75 110 200
      vertex 50 110 0
      vertex 75 110 0
    endloop
  endfacet
  facet normal -1 0 0
    outer loop
      vertex 50 130 0
      vertex 50 140 200
      vertex 50 140 0
    endloop
  endfacet
  facet normal -1 -0 0
    outer loop
      vertex 50 140 200
      vertex 50 130 0
      vertex 50 130 200
    endloop
  endfacet
  facet normal -0 0 1
    outer loop
      vertex 50 140 200
      vertex 75 130 200
      vertex 75 140 200
    endloop
  endfacet
  facet normal 0 0 1
    outer loop
      vertex 75 130 200
      vertex 50 140 200
      vertex 50 130 200
    endloop
  endfacet
  facet normal 0 0 -1
    outer loop
      vertex 50 130 0
      vertex 75 140 0
      vertex 75 130 0
    endloop
  endfacet
  facet normal -0 0 -1
    outer loop
      vertex 75 140 0
      vertex 50 130 0
      vertex 50 140 0
    endloop
  endfacet
  facet normal 0 -1 0
    outer loop
      vertex 50 130 0
      vertex 75 130 200
      vertex 50 130 200
    endloop
  endfacet
  facet normal 0 -1 -0
    outer loop
      vertex 75 130 200
      vertex 50 130 0
      vertex 75 130 0
    endloop
  endfacet
  facet normal 0 1 -0
    outer loop
      vertex 75 140 0
      vertex 50 140 200
      vertex 75 140 200
    endloop
  endfacet
  facet normal 0 1 0
    outer loop
      vertex 50 140 200
      vertex 75 140 0
      vertex 50 140 0
    endloop
  endfacet
  facet normal -1 0 0
    outer loop
      vertex 50 150 0
      vertex 50 160 200
      vertex 50 160 0
    endloop
  endfacet
  facet normal -1 -0 0
    outer loop
      vertex 50 160 200
      vertex 50 150 0
      vertex 50 150 200
    endloop
  endfacet
  facet normal -0 0 1
    outer loop
      vertex 50 160 200
      vertex 75 150 200
      vertex 75 160 200
    endloop
  endfacet
  facet normal 0 0 1
    outer loop
      vertex 75 150 200
      vertex 50 160 200
      vertex 50 150 200
    endloop
  endfacet
  facet normal 0 1 -0
    outer loop
      vertex 75 160 0
      vertex 50 160 200
      vertex 75 160 200
    endloop
  endfacet
  facet normal 0 1 0
    outer loop
      vertex 50 160 200
      vertex 75 160 0
      vertex 50 160 0
    endloop
  endfacet
  facet normal 0 0 -1
    outer loop
      vertex 50 150 0
      vertex 75 160 0
      vertex 75 150 0
    endloop
  endfacet
  facet normal -0 0 -1
    outer loop
      vertex 75 160 0
      vertex 50 150 0
      vertex 50 160 0
    endloop
  endfacet
  facet normal 0 -1 0
    outer loop
      vertex 50 150 0
      vertex 75 150 200
      vertex 50 150 200
    endloop
  endfacet
  facet normal 0 -1 -0
    outer loop
      vertex 75 150 200
      vertex 50 150 0
      vertex 75 150 0
    endloop
  endfacet
  facet normal -1 0 0
    outer loop
      vertex 50 170 0
      vertex 50 180 200
      vertex 50 180 0
    endloop
  endfacet
  facet normal -1 -0 0
    outer loop
      vertex 50 180 200
      vertex 50 170 0
      vertex 50 170 200
    endloop
  endfacet
  facet normal -0 0 1
    outer loop
      vertex 50 180 200
      vertex 75 170 200
      vertex 75 180 200
    endloop
  endfacet
  facet normal 0 0 1
    outer loop
      vertex 75 170 200
      vertex 50 180 200
      vertex 50 170 200
    endloop
  endfacet
  facet normal 0 1 -0
    outer loop
      vertex 75 180 0
      vertex 50 180 200
      vertex 75 180 200
    endloop
  endfacet
  facet normal 0 1 0
    outer loop
      vertex 50 180 200
      vertex 75 180 0
      vertex 50 180 0
    endloop
  endfacet
  facet normal 0 0 -1
    outer loop
      vertex 50 170 0
      vertex 75 180 0
      vertex 75 170 0
    endloop
  endfacet
  facet normal -0 0 -1
    outer loop
      vertex 75 180 0
      vertex 50 170 0
      vertex 50 180 0
    endloop
  endfacet
  facet normal 0 -1 0
    outer loop
      vertex 50 170 0
      vertex 75 170 200
      vertex 50 170 200
    endloop
  endfacet
  facet normal 0 -1 -0
    outer loop
      vertex 75 170 200
      vertex 50 170 0
      vertex 75 170 0
    endloop
  endfacet
  facet normal -1 0 0
    outer loop
      vertex 50 190 0
      vertex 50 200 200
      vertex 50 200 0
    endloop
  endfacet
  facet normal -1 -0 0
    outer loop
      vertex 50 200 200
      vertex 50 190 0
      vertex 50 190 200
    endloop
  endfacet
  facet normal -0 0 1
    outer loop
      vertex 50 200 200
      vertex 75 190 200
      vertex 75 200 200
    endloop
  endfacet
  facet normal 0 0 1
    outer loop
      vertex 75 190 200
      vertex 50 200 200
      vertex 50 190 200
    endloop
  endfacet
  facet normal 0 0 -1
    outer loop
      vertex 50 190 0
      vertex 75 200 0
      vertex 75 190 0
    endloop
  endfacet
  facet normal -0 0 -1
    outer loop
      vertex 75 200 0
      vertex 50 190 0
      vertex 50 200 0
    endloop
  endfacet
  facet normal 0 -1 0
    outer loop
      vertex 50 190 0
      vertex 75 190 200
      vertex 50 190 200
    endloop
  endfacet
  facet normal 0 -1 -0
    outer loop
      vertex 75 190 200
      vertex 50 190 0
      vertex 75 190 0
    endloop
  endfacet
  facet normal 0 1 -0
    outer loop
      vertex 75 200 0
      vertex 50 200 200
      vertex 75 200 200
    endloop
  endfacet
  facet normal 0 1 0
    outer loop
      vertex 50 200 200
      vertex 75 200 0
      vertex 50 200 0
    endloop
  endfacet
  facet normal 1 -0 0
    outer loop
      vertex 75 10 200
      vertex 75 20 0
      vertex 75 20 200
    endloop
  endfacet
  facet normal 1 0 0
    outer loop
      vertex 75 20 0
      vertex 75 10 200
      vertex 75 10 0
    endloop
  endfacet
  facet normal 1 -0 0
    outer loop
      vertex 75 30 200
      vertex 75 40 0
      vertex 75 40 200
    endloop
  endfacet
  facet normal 1 0 0
    outer loop
      vertex 75 40 0
      vertex 75 30 200
      vertex 75 30 0
    endloop
  endfacet
  facet normal 1 -0 0
    outer loop
      vertex 75 50 200
      vertex 75 60 0
      vertex 75 60 200
    endloop
  endfacet
  facet normal 1 0 0
    outer loop
      vertex 75 60 0
      vertex 75 50 200
      vertex 75 50 0
    endloop
  endfacet
  facet normal 1 -0 0
    outer loop
      vertex 75 70 200
      vertex 75 80 0
      vertex 75 80 200
    endloop
  endfacet
  facet normal 1 0 0
    outer loop
      vertex 75 80 0
      vertex 75 70 200
      vertex 75 70 0
    endloop
  endfacet
  facet normal 1 -0 0
    outer loop
      vertex 75 90 200
      vertex 75 100 0
      vertex 75 100 200
    endloop
  endfacet
  facet normal 1 0 0
    outer loop
      vertex 75 100 0
      vertex 75 90 200
      vertex 75 90 0
    endloop
  endfacet
  facet normal 1 -0 0
    outer loop
      vertex 75 110 200
      vertex 75 120 0
      vertex 75 120 200
    endloop
  endfacet
  facet normal 1 0 0
    outer loop
      vertex 75 120 0
      vertex 75 110 200
      vertex 75 110 0
    endloop
  endfacet
  facet normal 1 -0 0
    outer loop
      vertex 75 130 200
      vertex 75 140 0
      vertex 75 140 200
    endloop
  endfacet
  facet normal 1 0 0
    outer loop
      vertex 75 140 0
      vertex 75 130 200
      vertex 75 130 0
    endloop
  endfacet
  facet normal 1 -0 0
    outer loop
      vertex 75 150 200
      vertex 75 160 0
      vertex 75 160 200
    endloop
  endfacet
  facet normal 1 0 0
    outer loop
      vertex 75 160 0
      vertex 75 150 200
      vertex 75 150 0
    endloop
  endfacet
  facet normal 1 -0 0
    outer loop
      vertex 75 170 200
      vertex 75 180 0
      vertex 75 180 200
    endloop
  endfacet
  facet normal 1 0 0
    outer loop
      vertex 75 180 0
      vertex 75 170 200
      vertex 75 170 0
    endloop
  endfacet
  facet normal 1 -0 0
    outer loop
      vertex 75 190 200
      vertex 75 200 0
      vertex 75 200 200
    endloop
  endfacet
  facet normal 1 0 0
    outer loop
      vertex 75 200 0
      vertex 75 190 200
      vertex 75 190 0
    endloop
  endfacet
  facet normal -1 0 0
    outer loop
      vertex 112.5 0 0
      vertex 112.5 10 200
      vertex 112.5 10 0
    endloop
  endfacet
  facet normal -1 -0 0
    outer loop
      vertex 112.5 10 200
      vertex 112.5 0 0
      vertex 112.5 0 200
    endloop
  endfacet
  facet normal -0 0 1
    outer loop
      vertex 112.5 10 200
      vertex 137.5 0 200
      vertex 137.5 10 200
    endloop
  endfacet
  facet normal 0 0 1
    outer loop
      vertex 137.5 0 200
      vertex 112.5 10 200
      vertex 112.5 0 200
    endloop
  endfacet
  facet normal 0 0 -1
    outer loop
      vertex 112.5 0 0
      vertex 137.5 10 0
      vertex 137.5 0 0
    endloop
  endfacet
  facet normal -0 0 -1
    outer loop
      vertex 137.5 10 0
      vertex 112.5 0 0
      vertex 112.5 10 0
    endloop
  endfacet
  facet normal 0 -1 0
    outer loop
      vertex 112.5 0 0
      vertex 137.5 0 200
      vertex 112.5 0 200
    endloop
  endfacet
  facet normal 0 -1 -0
    outer loop
      vertex 137.5 0 200
      vertex 112.5 0 0
      vertex 137.5 0 0
    endloop
  endfacet
  facet normal 0 1 -0
    outer loop
      vertex 137.5 10 0
      vertex 112.5 10 200
      vertex 137.5 10 200
    endloop
  endfacet
  facet normal 0 1 0
    outer loop
      vertex 112.5 10 200
      vertex 137.5 10 0
      vertex 112.5 10 0
    endloop
  endfacet
  facet normal -1 0 0
    outer loop
      vertex 112.5 20 0
      vertex 112.5 30 200
      vertex 112.5 30 0
    endloop
  endfacet
  facet normal -1 -0 0
    outer loop
      vertex 112.5 30 200
      vertex 112.5 20 0
      vertex 112.5 20 200
    endloop
  endfacet
  facet normal -0 0 1
    outer loop
      vertex 112.5 30 200
      vertex 137.5 20 200
      vertex 137.5 30 200
    endloop
  endfacet
  facet normal 0 0 1
    outer loop
      vertex 137.5 20 200
      vertex 112.5 30 200
      vertex 112.5 20 200
    endloop
  endfacet
  facet normal 0 1 -0
    outer loop
      vertex 137.5 30 0
      vertex 112.5 30 200
      vertex 137.5 30 200
    endloop
  endfacet
  facet normal 0 1 0
    outer loop
      vertex 112.5 30 200
      vertex 137.5 30 0
      vertex 112.5 30 0
    endloop
  endfacet
  facet normal 0 0 -1
    outer loop
      vertex 112.5 20 0
      vertex 137.5 30 0
      vertex 137.5 20 0
    endloop
  endfacet
  facet normal -0 0 -1
    outer loop
      vertex 137.5 30 0
      vertex 112.5 20 0
      vertex 112.5 30 0
    endloop
  endfacet
  facet normal 0 -1 0
    outer loop
      vertex 112.5 20 0
      vertex 137.5 20 200
      vertex 112.5 20 200
    endloop
  endfacet
  facet normal 0 -1 -0
    outer loop
      vertex 137.5 20 200
      vertex 112.5 20 0
      vertex 137.5 20 0
    endloop
  endfacet
  facet normal -1 0 0
    outer loop
      vertex 112.5 40 0
      vertex 112.5 50 200
      vertex 112.5 50 0
    endloop
  endfacet
  facet normal -1 -0 0
    outer loop
      vertex 112.5 50 200
      vertex 112.5 40 0
      vertex 112.5 40 200
    endloop
  endfacet
  facet normal -0 0 1
    outer loop
      vertex 112.5 50 200
      vertex 137.5 40 200
      vertex 137.5 50 200
    endloop
  endfacet
  facet normal 0 0 1
    outer loop
      vertex 137.5 40 200
      vertex 112.5 50 200
      vertex 112.5 40 200
    endloop
  endfacet
  facet normal 0 1 -0
    outer loop
      vertex 137.5 50 0
      vertex 112.5 50 200
      vertex 137.5 50 200
    endloop
  endfacet
  facet normal 0 1 0
    outer loop
      vertex 112.5 50 200
      vertex 137.5 50 0
      vertex 112.5 50 0
    endloop
  endfacet
  facet normal 0 0 -1
    outer loop
      vertex 112.5 40 0
      vertex 137.5 50 0
      vertex 137.5 40 0
    endloop
  endfacet
  facet normal -0 0 -1
    outer loop
      vertex 137.5 50 0
      vertex 112.5 40 0
      vertex 112.5 50 0
    endloop
  endfacet
  facet normal 0 -1 0
    outer loop
      vertex 112.5 40 0
      vertex 137.5 40 200
      vertex 112.5 40 200
    endloop
  endfacet
  facet normal 0 -1 -0
    outer loop
      vertex 137.5 40 200
      vertex 112.5 40 0
      vertex 137.5 40 0
    endloop
  endfacet
  facet normal -1 0 0
    outer loop
      vertex 112.5 60 0
      vertex 112.5 70 200
      vertex 112.5 70 0
    endloop
  endfacet
  facet normal -1 -0 0
    outer loop
      vertex 112.5 70 200
      vertex 112.5 60 0
      vertex 112.5 60 200
    endloop
  endfacet
  facet normal -0 0 1
    outer loop
      vertex 112.5 70 200
      vertex 137.5 60 200
      vertex 137.5 70 200
    endloop
  endfacet
  facet normal 0 0 1
    outer loop
      vertex 137.5 60 200
      vertex 112.5 70 200
      vertex 112.5 60 200
    endloop
  endfacet
  facet normal 0 1 -0
    outer loop
      vertex 137.5 70 0
      vertex 112.5 70 200
      vertex 137.5 70 200
    endloop
  endfacet
  facet normal 0 1 0
    outer loop
      vertex 112.5 70 200
      vertex 137.5 70 0
      vertex 112.5 70 0
    endloop
  endfacet
  facet normal 0 0 -1
    outer loop
      vertex 112.5 60 0
      vertex 137.5 70 0
      vertex 137.5 60 0
    endloop
  endfacet
  facet normal -0 0 -1
    outer loop
      vertex 137.5 70 0
      vertex 112.5 60 0
      vertex 112.5 70 0
    endloop
  endfacet
  facet normal 0 -1 0
    outer loop
      vertex 112.5 60 0
      vertex 137.5 60 200
      vertex 112.5 60 200
    endloop
  endfacet
  facet normal 0 -1 -0
    outer loop
      vertex 137.5 60 200
      vertex 112.5 60 0
      vertex 137.5 60 0
    endloop
  endfacet
  facet normal -1 0 0
    outer loop
      vertex 112.5 80 0
      vertex 112.5 90 200
      vertex 112.5 90 0
    endloop
  endfacet
  facet normal -1 -0 0
    outer loop
      vertex 112.5 90 200
      vertex 112.5 80 0
      vertex 112.5 80 200
    endloop
  endfacet
  facet normal -0 0 1
    outer loop
      vertex 112.5 90 200
      vertex 137.5 80 200
      vertex 137.5 90 200
    endloop
  endfacet
  facet normal 0 0 1
    outer loop
      vertex 137.5 80 200
      vertex 112.5 90 200
      vertex 112.5 80 200
    endloop
  endfacet
  facet normal 0 1 -0
    outer loop
      vertex 137.5 90 0
      vertex 112.5 90 200
      vertex 137.5 90 200
    endloop
  endfacet
  facet normal 0 1 0
    outer loop
      vertex 112.5 90 200
      vertex 137.5 90 0
      vertex 112.5 90 0
    endloop
  endfacet
  facet normal 0 0 -1
    outer loop
      vertex 112.5 80 0
      vertex 137.5 90 0
      vertex 137.5 80 0
    endloop
  endfacet
  facet normal -0 0 -1
    outer loop
      vertex 137.5 90 0
      vertex 112.5 80 0
      vertex 112.5 90 0
    endloop
  endfacet
  facet normal 0 -1 0
    outer loop
      vertex 112.5 80 0
      vertex 137.5 80 200
      vertex 112.5 80 200
    endloop
  endfacet
  facet normal 0 -1 -0
    outer loop
      vertex 137.5 80 200
      vertex 112.5 80 0
      vertex 137.5 80 0
    endloop
  endfacet
  facet normal -1 0 0
    outer loop
      vertex 112.5 100 0
      vertex 112.5 110 200
      vertex 112.5 110 0
    endloop
  endfacet
  facet normal -1 -0 0
    outer loop
      vertex 112.5 110 200
      vertex 112.5 100 0
      vertex 112.5 100 200
    endloop
  endfacet
  facet normal -0 0 1
    outer loop
      vertex 112.5 110 200
      vertex 137.5 100 200
      vertex 137.5 110 200
    endloop
  endfacet
  facet normal 0 0 1
    outer loop
      vertex 137.5 100 200
      vertex 112.5 110 200
      vertex 112.5 100 200
    endloop
  endfacet
  facet normal 0 0 -1
    outer loop
      vertex 112.5 100 0
      vertex 137.5 110 0
      vertex 137.5 100 0
    endloop
  endfacet
  facet normal -0 0 -1
    outer loop
      vertex 137.5 110 0
      vertex 112.5 100 0
      vertex 112.5 110 0
    endloop
  endfacet
  facet normal 0 -1 0
    outer loop
      vertex 112.5 100 0
      vertex 137.5 100 200
      vertex 112.5 100 200
    endloop
  endfacet
  facet normal 0 -1 -0
    outer loop
      vertex 137.5 100 200
      vertex 112.5 100 0
      vertex 137.5 100 0
    endloop
  endfacet
  facet normal 0 1 -0
    outer loop
      vertex 137.5 110 0
      vertex 112.5 110 200
      vertex 137.5 110 200
    endloop
  endfacet
  facet normal 0 1 0
    outer loop
      vertex 112.5 110 200
      vertex 137.5 110 0
      vertex 112.5 110 0
    endloop
  endfacet
  facet normal -1 0 0
    outer loop
      vertex 112.5 120 0
      vertex 112.5 130 200
      vertex 112.5 130 0
    endloop
  endfacet
  facet normal -1 -0 0
    outer loop
      vertex 112.5 130 200
      vertex 112.5 120 0
      vertex 112.5 120 200
    endloop
  endfacet
  facet normal -0 0 1
    outer loop
      vertex 112.5 130 200
      vertex 137.5 120 200
      vertex 137.5 130 200
    endloop
  endfacet
  facet normal 0 0 1
    outer loop
      vertex 137.5 120 200
      vertex 112.5 130 200
      vertex 112.5 120 200
    endloop
  endfacet
  facet normal 0 0 -1
    outer loop
      vertex 112.5 120 0
      vertex 137.5 130 0
      vertex 137.5 120 0
    endloop
  endfacet
  facet normal -0 0 -1
    outer loop
      vertex 137.5 130 0
      vertex 112.5 120 0
      vertex 112.5 130 0
    endloop
  endfacet
  facet normal 0 -1 0
    outer loop
      vertex 112.5 120 0
      vertex 137.5 120 200
      vertex 112.5 120 200
    endloop
  endfacet
  facet normal 0 -1 -0
    outer loop
      vertex 137.5 120 200
      vertex 112.5 120 0
      vertex 137.5 120 0
    endloop
  endfacet
  facet normal 0 1 -0
    outer loop
      vertex 137.5 130 0
      vertex 112.5 130 200
      vertex 137.5 130 200
    endloop
  endfacet
  facet normal 0 1 0
    outer loop
      vertex 112.5 130 200
      vertex 137.5 130 0
      vertex 112.5 130 0
    endloop
  endfacet
  facet normal -1 0 0
    outer loop
      vertex 112.5 140 0
      vertex 112.5 150 200
      vertex 112.5 150 0
    endloop
  endfacet
  facet normal -1 -0 0
    outer loop
      vertex 112.5 150 200
      vertex 112.5 140 0
      vertex 112.5 140 200
    endloop
  endfacet
  facet normal -0 0 1
    outer loop
      vertex 112.5 150 200
      vertex 137.5 140 200
      vertex 137.5 150 200
    endloop
  endfacet
  facet normal 0 0 1
    outer loop
      vertex 137.5 140 200
      vertex 112.5 150 200
      vertex 112.5 140 200
    endloop
  endfacet
  facet normal 0 1 -0
    outer loop
      vertex 137.5 150 0
      vertex 112.5 150 200
      vertex 137.5 150 200
    endloop
  endfacet
  facet normal 0 1 0
    outer loop
      vertex 112.5 150 200
      vertex 137.5 150 0
      vertex 112.5 150 0
    endloop
  endfacet
  facet normal 0 0 -1
    outer loop
      vertex 112.5 140 0
      vertex 137.5 150 0
      vertex 137.5 140 0
    endloop
  endfacet
  facet normal -0 0 -1
    outer loop
      vertex 137.5 150 0
      vertex 112.5 140 0
      vertex 112.5 150 0
    endloop
  endfacet
  facet normal 0 -1 0
    outer loop
      vertex 112.5 140 0
      vertex 137.5 140 200
      vertex 112.5 140 200
    endloop
  endfacet
  facet normal 0 -1 -0
    outer loop
      vertex 137.5 140 200
      vertex 112.5 140 0
      vertex 137.5 140 0
    endloop
  endfacet
  facet normal -1 0 0
    outer loop
      vertex 112.5 160 0
      vertex 112.5 170 200
      vertex 112.5 170 0
    endloop
  endfacet
  facet normal -1 -0 0
    outer loop
      vertex 112.5 170 200
      vertex 112.5 160 0
      vertex 112.5 160 200
    endloop
  endfacet
  facet normal -0 0 1
    outer loop
      vertex 112.5 170 200
      vertex 137.5 160 200
      vertex 137.5 170 200
    endloop
  endfacet
  facet normal 0 0 1
    outer loop
      vertex 137.5 160 200
      vertex 112.5 170 200
      vertex 112.5 160 200
    endloop
  endfacet
  facet normal 0 0 -1
    outer loop
      vertex 112.5 160 0
      vertex 137.5 170 0
      vertex 137.5 160 0
    endloop
  endfacet
  facet normal -0 0 -1
    outer loop
      vertex 137.5 170 0
      vertex 112.5 160 0
      vertex 112.5 170 0
    endloop
  endfacet
  facet normal 0 -1 0
    outer loop
      vertex 112.5 160 0
      vertex 137.5 160 200
      vertex 112.5 160 200
    endloop
  endfacet
  facet normal 0 -1 -0
    outer loop
      vertex 137.5 160 200
      vertex 112.5 160 0
      vertex 137.5 160 0
    endloop
  endfacet
  facet normal 0 1 -0
    outer loop
      vertex 137.5 170 0
      vertex 112.5 170 200
      vertex 137.5 170 200
    endloop
  endfacet
  facet normal 0 1 0
    outer loop
      vertex 112.5 170 200
      vertex 137.5 170 0
      vertex 112.5 170 0
    endloop
  endfacet
  facet normal -1 0 0
    outer loop
      vertex 112.5 180 0
      vertex 112.5 190 200
      vertex 112.5 190 0
    endloop
  endfacet
  facet normal -1 -0 0
    outer loop
      vertex 112.5 190 200
      vertex 112.5 180 0
      vertex 112.5 180 200
    endloop
  endfacet
  facet normal -0 0 1
    outer loop
      vertex 112.5 190 200
      vertex 137.5 180 200
      vertex 137.5 190 200
    endloop
  endfacet
  facet normal 0 0 1
    outer loop
      vertex 137.5 180 200
      vertex 112.5 190 200
      vertex 112.5 180 200
    endloop
  endfacet
  facet normal 0 1 -0
    outer loop
      vertex 137.5 190 0
      vertex 112.5 190 200
      vertex 137.5 190 200
    endloop
  endfacet
  facet normal 0 1 0
    outer loop
      vertex 112.5 190 200
      vertex 137.5 190 0
      vertex 112.5 190 0
    endloop
  endfacet
  facet normal 0 0 -1
    outer loop
      vertex 112.5 180 0
      vertex 137.5 190 0
      vertex 137.5 180 0
    endloop
  endfacet
  facet normal -0 0 -1
    outer loop
      vertex 137.5 190 0
      vertex 112.5 180 0
      vertex 112.5 190 0
    endloop
  endfacet
  facet normal 0 -1 0
    outer loop
      vertex 112.5 180 0
      vertex 137.5 180 200
      vertex 112.5 180 200
    endloop
  endfacet
  facet normal 0 -1 -0
    outer loop
      vertex 137.5 180 200
      vertex 112.5 180 0
      vertex 137.5 180 0
    endloop
  endfacet
  facet normal 1 -0 0
    outer loop
      vertex 137.5 0 200
      vertex 137.5 10 0
      vertex 137.5 10 200
    endloop
  endfacet
  facet normal 1 0 0
    outer loop
      vertex 137.5 10 0
      vertex 137.5 0 200
      vertex 137.5 0 0
    endloop
  endfacet
  facet normal 1 -0 0
    outer loop
      vertex 137.5 20 200
      vertex 137.5 30 0
      vertex 137.5 30 200
    endloop
  endfacet
  facet normal 1 0 0
    outer loop
      vertex 137.5 30 0
      vertex 137.5 20 200
      vertex 137.5 20 0
    endloop
  endfacet
  facet normal 1 -0 0
    outer loop
      vertex 137.5 40 200
      vertex 137.5 50 0
      vertex 137.5 50 200
    endloop
  endfacet
  facet normal 1 0 0
    outer loop
      vertex 137.5 50 0
      vertex 137.5 40 200
      vertex 137.5 40 0
    endloop
  endfacet
  facet normal 1 -0 0
    outer loop
      vertex 137.5 60 200
      vertex 137.5 70 0
      vertex 137.5 70 200
    endloop
  endfacet
  facet normal 1 0 0
    outer loop
      vertex 137.5 70 0
      vertex 137.5 60 200
      vertex 137.5 60 0
    endloop
  endfacet
  facet normal 1 -0 0
    outer loop
      vertex 137.5 80 200
      vertex 137.5 90 0
      vertex 137.5 90 200
    endloop
  endfacet
  facet normal 1 0 0
    outer loop
      vertex 137.5 90 0
      vertex 137.5 80 200
      vertex 137.5 80 0
    endloop
  endfacet
  facet normal 1 -0 0
    outer loop
      vertex 137.5 100 200
      vertex 137.5 110 0
      vertex 137.5 110 200
    endloop
  endfacet
  facet normal 1 0 0
    outer loop
      vertex 137.5 110 0
      vertex 137.5 100 200
      vertex 137.5 100 0
    endloop
  endfacet
  facet normal 1 -0 0
    outer loop
      vertex 137.5 120 200
      vertex 137.5 130 0
      vertex 137.5 130 200
    endloop
  endfacet
  facet normal 1 0 0
    outer loop
      vertex 137.5 130 0
      vertex 137.5 120 200
      vertex 137.5 120 0
    endloop
  endfacet
  facet normal 1 -0 0
    outer loop
      vertex 137.5 140 200
      vertex 137.5 150 0
      vertex 137.5 150 200
    endloop
  endfacet
  facet normal 1 0 0
    outer loop
      vertex 137.5 150 0
      vertex 137.5 140 200
      vertex 137.5 140 0
    endloop
  endfacet
  facet normal 1 -0 0
    outer loop
      vertex 137.5 160 200
      vertex 137.5 170 0
      vertex 137.5 170 200
    endloop
  endfacet
  facet normal 1 0 0
    outer loop
      vertex 137.5 170 0
      vertex 137.5 160 200
      vertex 137.5 160 0
    endloop
  endfacet
  facet normal 1 -0 0
    outer loop
      vertex 137.5 180 200
      vertex 137.5 190 0
      vertex 137.5 190 200
    endloop
  endfacet
  facet normal 1 0 0
    outer loop
      vertex 137.5 190 0
      vertex 137.5 180 200
      vertex 137.5 180 0
    endloop
  endfacet
  facet normal -1 0 0
    outer loop
      vertex 175 10 0
      vertex 175 20 200
      vertex 175 20 0
    endloop
  endfacet
  facet normal -1 -0 0
    outer loop
      vertex 175 20 200
      vertex 175 10 0
      vertex 175 10 200
    endloop
  endfacet
  facet normal -0 0 1
    outer loop
      vertex 175 20 200
      vertex 200 10 200
      vertex 200 20 200
    endloop
  endfacet
  facet normal 0 0 1
    outer loop
      vertex 200 10 200
      vertex 175 20 200
      vertex 175 10 200
    endloop
  endfacet
  facet normal 0 0 -1
    outer loop
      vertex 175 10 0
      vertex 200 20 0
      vertex 200 10 0
    endloop
  endfacet
  facet normal -0 0 -1
    outer loop
      vertex 200 20 0
      vertex 175 10 0
      vertex 175 20 0
    endloop
  endfacet
  facet normal 0 -1 0
    outer loop
      vertex 175 10 0
      vertex 200 10 200
      vertex 175 10 200
    endloop
  endfacet
  facet normal 0 -1 -0
    outer loop
      vertex 200 10 200
      vertex 175 10 0
      vertex 200 10 0
    endloop
  endfacet
  facet normal 0 1 -0
    outer loop
      vertex 200 20 0
      vertex 175 20 200
      vertex 200 20 200
    endloop
  endfacet
  facet normal 0 1 0
    outer loop
      vertex 175 20 200
      vertex 200 20 0
      vertex 175 20 0
    endloop
  endfacet
  facet normal -1 0 0
    outer loop
      vertex 175 30 0
      vertex 175 40 200
      vertex 175 40 0
    endloop
  endfacet
  facet normal -1 -0 0
    outer loop
      vertex 175 40 200
      vertex 175 30 0
      vertex 175 30 200
    endloop
  endfacet
  facet normal -0 0 1
    outer loop
      vertex 175 40 200
      vertex 200 30 200
      vertex 200 40 200
    endloop
  endfacet
  facet normal 0 0 1
    outer loop
      vertex 200 30 200
      vertex 175 40 200
      vertex 175 30 200
    endloop
  endfacet
  facet normal 0 1 -0
    outer loop
      vertex 200 40 0
      vertex 175 40 200
      vertex 200 40 200
    endloop
  endfacet
  facet normal 0 1 0
    outer loop
      vertex 175 40 200
      vertex 200 40 0
      vertex 175 40 0
    endloop
  endfacet
  facet normal 0 0 -1
    outer loop
      vertex 175 30 0
      vertex 200 40 0
      vertex 200 30 0
    endloop
  endfacet
  facet normal -0 0 -1
    outer loop
      vertex 200 40 0
      vertex 175 30 0
      vertex 175 40 0
    endloop
  endfacet
  facet normal 0 -1 0
    outer loop
      vertex 175 30 0
      vertex 200 30 200
      vertex 175 30 200
    endloop
  endfacet
  facet normal 0 -1 -0
    outer loop
      vertex 200 30 200
      vertex 175 30 0
      vertex 200 30 0
    endloop
  endfacet
  facet normal -1 0 0
    outer loop
      vertex 175 50 0
      vertex 175 60 200
      vertex 175 60 0
    endloop
  endfacet
  facet normal -1 -0 0
    outer loop
      vertex 175 60 200
      vertex 175 50 0
      vertex 175 50 200
    endloop
  endfacet
  facet normal -0 0 1
    outer loop
      vertex 175 60 200
      vertex 200 50 200
      vertex 200 60 200
    endloop
  endfacet
  facet normal 0 0 1
    outer loop
      vertex 200 50 200
      vertex 175 60 200
      vertex 175 50 200
    endloop
  endfacet
  facet normal 0 0 -1
    outer loop
      vertex 175 50 0
      vertex 200 60 0
      vertex 200 50 0
    endloop
  endfacet
  facet normal -0 0 -1
    outer loop
      vertex 200 60 0
      vertex 175 50 0
      vertex 175 60 0
    endloop
  endfacet
  facet normal 0 -1 0
    outer loop
      vertex 175 50 0
      vertex 200 50 200
      vertex 175 50 200
    endloop
  endfacet
  facet normal 0 -1 -0
    outer loop
      vertex 200 50 200
      vertex 175 50 0
      vertex 200 50 0
    endloop
  endfacet
  facet normal 0 1 -0
    outer loop
      vertex 200 60 0
      vertex 175 60 200
      vertex 200 60 200
    endloop
  endfacet
  facet normal 0 1 0
    outer loop
      vertex 175 60 200
      vertex 200 60 0
      vertex 175 60 0
    endloop
  endfacet
  facet normal -1 0 0
    outer loop
      vertex 175 70 0
      vertex 175 80 200
      vertex 175 80 0
    endloop
  endfacet
  facet normal -1 -0 0
    outer loop
      vertex 175 80 200
      vertex 175 70 0
      vertex 175 70 200
    endloop
  endfacet
  facet normal -0 0 1
    outer loop
      vertex 175 80 200
      vertex 200 70 200
      vertex 200 80 200
    endloop
  endfacet
  facet normal 0 0 1
    outer loop
      vertex 200 70 200
      vertex 175 80 200
      vertex 175 70 200
    endloop
  endfacet
  facet normal 0 1 -0
    outer loop
      vertex 200 80 0
      vertex 175 80 200
      vertex 200 80 200
    endloop
  endfacet
  facet normal 0 1 0
    outer loop
      vertex 175 80 200
      vertex 200 80 0
      vertex 175 80 0
    endloop
  endfacet
  facet normal 0 0 -1
    outer loop
      vertex 175 70 0
      vertex 200 80 0
      vertex 200 70 0
    endloop
  endfacet
  facet normal -0 0 -1
    outer loop
      vertex 200 80 0
      vertex 175 70 0
      vertex 175 80 0
    endloop
  endfacet
  facet normal 0 -1 0
    outer loop
      vertex 175 70 0
      vertex 200 70 200
      vertex 175 70 200
    endloop
  endfacet
  facet normal 0 -1 -0
    outer loop
      vertex 200 70 200
      vertex 175 70 0
      vertex 200 70 0
    endloop
  endfacet
  facet normal -1 0 0
    outer loop
      vertex 175 90 0
      vertex 175 100 200
      vertex 175 100 0
    endloop
  endfacet
  facet normal -1 -0 0
    outer loop
      vertex 175 100 200
      vertex 175 90 0
      vertex 175 90 200
    endloop
  endfacet
  facet normal -0 0 1
    outer loop
      vertex 175 100 200
      vertex 200 90 200
      vertex 200 100 200
    endloop
  endfacet
  facet normal 0 0 1
    outer loop
      vertex 200 90 200
      vertex 175 100 200
      vertex 175 90 200
    endloop
  endfacet
  facet normal 0 1 -0
    outer loop
      vertex 200 100 0
      vertex 175 100 200
      vertex 200 100 200
    endloop
  endfacet
  facet normal 0 1 0
    outer loop
      vertex 175 100 200
      vertex 200 100 0
      vertex 175 100 0
    endloop
  endfacet
  facet normal 0 0 -1
    outer loop
      vertex 175 90 0
      vertex 200 100 0
      vertex 200 90 0
    endloop
  endfacet
  facet normal -0 0 -1
    outer loop
      vertex 200 100 0
      vertex 175 90 0
      vertex 175 100 0
    endloop
  endfacet
  facet normal 0 -1 0
    outer loop
      vertex 175 90 0
      vertex 200 90 200
      vertex 175 90 200
    endloop
  endfacet
  facet normal 0 -1 -0
    outer loop
      vertex 200 90 200
      vertex 175 90 0
      vertex 200 90 0
    endloop
  endfacet
  facet normal -1 0 0
    outer loop
      vertex 175 110 0
      vertex 175 120 200
      vertex 175 120 0
    endloop
  endfacet
  facet normal -1 -0 0
    outer loop
      vertex 175 120 200
      vertex 175 110 0
      vertex 175 110 200
    endloop
  endfacet
  facet normal -0 0 1
    outer loop
      vertex 175 120 200
      vertex 200 110 200
      vertex 200 120 200
    endloop
  endfacet
  facet normal 0 0 1
    outer loop
      vertex 200 110 200
      vertex 175 120 200
      vertex 175 110 200
    endloop
  endfacet
  facet normal 0 0 -1
    outer loop
      vertex 175 110 0
      vertex 200 120 0
      vertex 200 110 0
    endloop
  endfacet
  facet normal -0 0 -1
    outer loop
      vertex 200 120 0
      vertex 175 110 0
      vertex 175 120 0
    endloop
  endfacet
  facet normal 0 -1 0
    outer loop
      vertex 175 110 0
      vertex 200 110 200
      vertex 175 110 200
    endloop
  endfacet
  facet normal 0 -1 -0
    outer loop
      vertex 200 110 200
      vertex 175 110 0
      vertex 200 110 0
    endloop
  endfacet
  facet normal 0 1 -0
    outer loop
      vertex 200 120 0
      vertex 175 120 200
      vertex 200 120 200
    endloop
  endfacet
  facet normal 0 1 0
    outer loop
      vertex 175 120 200
      vertex 200 120 0
      vertex 175 120 0
    endloop
  endfacet
  facet normal -1 0 0
    outer loop
      vertex 175 130 0
      vertex 175 140 200
      vertex 175 140 0
    endloop
  endfacet
  facet normal -1 -0 0
    outer loop
      vertex 175 140 200
      vertex 175 130 0
      vertex 175 130 200
    endloop
  endfacet
  facet normal -0 0 1
    outer loop
      vertex 175 140 200
      vertex 200 130 200
      vertex 200 140 200
    endloop
  endfacet
  facet normal 0 0 1
    outer loop
      vertex 200 130 200
      vertex 175 140 200
      vertex 175 130 200
    endloop
  endfacet
  facet normal 0 1 -0
    outer loop
      vertex 200 140 0
      vertex 175 140 200
      vertex 200 140 200
    endloop
  endfacet
  facet normal 0 1 0
    outer loop
      vertex 175 140 200
      vertex 200 140 0
      vertex 175 140 0
    endloop
  endfacet
  facet normal 0 0 -1
    outer loop
      vertex 175 130 0
      vertex 200 140 0
      vertex 200 130 0
    endloop
  endfacet
  facet normal -0 0 -1
    outer loop
      vertex 200 140 0
      vertex 175 130 0
      vertex 175 140 0
    endloop
  endfacet
  facet normal 0 -1 0
    outer loop
      vertex 175 130 0
      vertex 200 130 200
      vertex 175 130 200
    endloop
  endfacet
  facet normal 0 -1 -0
    outer loop
      vertex 200 130 200
      vertex 175 130 0
      vertex 200 130 0
    endloop
  endfacet
  facet normal -1 0 0
    outer loop
      vertex 175 150 0
      vertex 175 160 200
      vertex 175 160 0
    endloop
  endfacet
  facet normal -1 -0 0
    outer loop
      vertex 175 160 200
      vertex 175 150 0
      vertex 175 150 200
    endloop
  endfacet
  facet normal -0 0 1
    outer loop
      vertex 175 160 200
      vertex 200 150 200
      vertex 200 160 200
    endloop
  endfacet
  facet normal 0 0 1
    outer loop
      vertex 200 150 200
      vertex 175 160 200
      vertex 175 150 200
    endloop
  endfacet
  facet normal 0 1 -0
    outer loop
      vertex 200 160 0
      vertex 175 160 200
      vertex 200 160 200
    endloop
  endfacet
  facet normal 0 1 0
    outer loop
      vertex 175 160 200
      vertex 200 160 0
      vertex 175 160 0
    endloop
  endfacet
  facet normal 0 0 -1
    outer loop
      vertex 175 150 0
      vertex 200 160 0
      vertex 200 150 0
    endloop
  endfacet
  facet normal -0 0 -1
    outer loop
      vertex 200 160 0
      vertex 175 150 0
      vertex 175 160 0
    endloop
  endfacet
  facet normal 0 -1 0
    outer loop
      vertex 175 150 0
      vertex 200 150 200
      vertex 175 150 200
    endloop
  endfacet
  facet normal 0 -1 -0
    outer loop
      vertex 200 150 200
      vertex 175 150 0
      vertex 200 150 0
    endloop
  endfacet
  facet normal -1 0 0
    outer loop
      vertex 175 170 0
      vertex 175 180 200
      vertex 175 180 0
    endloop
  endfacet
  facet normal -1 -0 0
    outer loop
      vertex 175 180 200
      vertex 175 170 0
      vertex 175 170 200
    endloop
  endfacet
  facet normal -0 0 1
    outer loop
      vertex 175 180 200
      vertex 200 170 200
      vertex 200 180 200
    endloop
  endfacet
  facet normal 0 0 1
    outer loop
      vertex 200 170 200
      vertex 175 180 200
      vertex 175 170 200
    endloop
  endfacet
  facet normal 0 1 -0
    outer loop
      vertex 200 180 0
      vertex 175 180 200
      vertex 200 180 200
    endloop
  endfacet
  facet normal 0 1 0
    outer loop
      vertex 175 180 200
      vertex 200 180 0
      vertex 175 180 0
    endloop
  endfacet
  facet normal 0 0 -1
    outer loop
      vertex 175 170 0
      vertex 200 180 0
      vertex 200 170 0
    endloop
  endfacet
  facet normal -0 0 -1
    outer loop
      vertex 200 180 0
      vertex 175 170 0
      vertex 175 180 0
    endloop
  endfacet
  facet normal 0 -1 0
    outer loop
      vertex 175 170 0
      vertex 200 170 200
      vertex 175 170 200
    endloop
  endfacet
  facet normal 0 -1 -0
    outer loop
      vertex 200 170 200
      vertex 175 170 0
      vertex 200 170 0
    endloop
  endfacet
  facet normal -1 0 0
    outer loop
      vertex 175 190 0
      vertex 175 200 200
      vertex 175 200 0
    endloop
  endfacet
  facet normal -1 -0 0
    outer loop
      vertex 175 200 200
      vertex 175 190 0
      vertex 175 190 200
    endloop
  endfacet
  facet normal -0 0 1
    outer loop
      vertex 175 200 200
      vertex 200 190 200
      vertex 200 200 200
    endloop
  endfacet
  facet normal 0 0 1
    outer loop
      vertex 200 190 200
      vertex 175 200 200
      vertex 175 190 200
    endloop
  endfacet
  facet normal 0 1 -0
    outer loop
      vertex 200 200 0
      vertex 175 200 200
      vertex 200 200 200
    endloop
  endfacet
  facet normal 0 1 0
    outer loop
      vertex 175 200 200
      vertex 200 200 0
      vertex 175 200 0
    endloop
  endfacet
  facet normal 0 0 -1
    outer loop
      vertex 175 190 0
      vertex 200 200 0
      vertex 200 190 0
    endloop
  endfacet
  facet normal -0 0 -1
    outer loop
      vertex 200 200 0
      vertex 175 190 0
      vertex 175 200 0
    endloop
  endfacet
  facet normal 0 -1 0
    outer loop
      vertex 175 190 0
      vertex 200 190 200
      vertex 175 190 200
    endloop
  endfacet
  facet normal 0 -1 -0
    outer loop
      vertex 200 190 200
      vertex 175 190 0
      vertex 200 190 0
    endloop
  endfacet
  facet normal 1 -0 0
    outer loop
      vertex 200 10 200
      vertex 200 20 0
      vertex 200 20 200
    endloop
  endfacet
  facet normal 1 0 0
    outer loop
      vertex 200 20 0
      vertex 200 10 200
      vertex 200 10 0
    endloop
  endfacet
  facet normal 1 -0 0
    outer loop
      vertex 200 30 200
      vertex 200 40 0
      vertex 200 40 200
    endloop
  endfacet
  facet normal 1 0 0
    outer loop
      vertex 200 40 0
      vertex 200 30 200
      vertex 200 30 0
    endloop
  endfacet
  facet normal 1 -0 0
    outer loop
      vertex 200 50 200
      vertex 200 60 0
      vertex 200 60 200
    endloop
  endfacet
  facet normal 1 0 0
    outer loop
      vertex 200 60 0
      vertex 200 50 200
      vertex 200 50 0
    endloop
  endfacet
  facet normal 1 -0 0
    outer loop
      vertex 200 70 200
      vertex 200 80 0
      vertex 200 80 200
    endloop
  endfacet
  facet normal 1 0 0
    outer loop
      vertex 200 80 0
      vertex 200 70 200
      vertex 200 70 0
    endloop
  endfacet
  facet normal 1 -0 0
    outer loop
      vertex 200 90 200
      vertex 200 100 0
      vertex 200 100 200
    endloop
  endfacet
  facet normal 1 0 0
    outer loop
      vertex 200 100 0
      vertex 200 90 200
      vertex 200 90 0
    endloop
  endfacet
  facet normal 1 -0 0
    outer loop
      vertex 200 110 200
      vertex 200 120 0
      vertex 200 120 200
    endloop
  endfacet
  facet normal 1 0 0
    outer loop
      vertex 200 120 0
      vertex 200 110 200
      vertex 200 110 0
    endloop
  endfacet
  facet normal 1 -0 0
    outer loop
      vertex 200 130 200
      vertex 200 140 0
      vertex 200 140 200
    endloop
  endfacet
  facet normal 1 0 0
    outer loop
      vertex 200 140 0
      vertex 200 130 200
      vertex 200 130 0
    endloop
  endfacet
  facet normal 1 -0 0
    outer loop
      vertex 200 150 200
      vertex 200 160 0
      vertex 200 160 200
    endloop
  endfacet
  facet normal 1 0 0
    outer loop
      vertex 200 160 0
      vertex 200 150 200
      vertex 200 150 0
    endloop
  endfacet
  facet normal 1 -0 0
    outer loop
      vertex 200 170 200
      vertex 200 180 0
      vertex 200 180 200
    endloop
  endfacet
  facet normal 1 0 0
    outer loop
      vertex 200 180 0
      vertex 200 170 200
      vertex 200 170 0
    endloop
  endfacet
  facet normal 1 -0 0
    outer loop
      vertex 200 190 200
      vertex 200 200 0
      vertex 200 200 200
    endloop
  endfacet
  facet normal 1 0 0
    outer loop
      vertex 200 200 0
      vertex 200 190 200
      vertex 200 190 0
    endloop
  endfacet
  facet normal -1 0 0
    outer loop
      vertex 237.5 0 0
      vertex 237.5 10 200
      vertex 237.5 10 0
    endloop
  endfacet
  facet normal -1 -0 0
    outer loop
      vertex 237.5 10 200
      vertex 237.5 0 0
      vertex 237.5 0 200
    endloop
  endfacet
  facet normal -0 0 1
    outer loop
      vertex 237.5 10 200
      vertex 250 0 200
      vertex 250 10 200
    endloop
  endfacet
  facet normal 0 0 1
    outer loop
      vertex 250 0 200
      vertex 237.5 10 200
      vertex 237.5 0 200
    endloop
  endfacet
  facet normal 1 -0 0
    outer loop
      vertex 250 0 200
      vertex 250 10 0
      vertex 250 10 200
    endloop
  endfacet
  facet normal 1 0 0
    outer loop
      vertex 250 10 0
      vertex 250 0 200
      vertex 250 0 0
    endloop
  endfacet
  facet normal 0 1 -0
    outer loop
      vertex 250 10 0
      vertex 237.5 10 200
      vertex 250 10 200
    endloop
  endfacet
  facet normal 0 1 0
    outer loop
      vertex 237.5 10 200
      vertex 250 10 0
      vertex 237.5 10 0
    endloop
  endfacet
  facet normal 0 0 -1
    outer loop
      vertex 237.5 0 0
      vertex 250 10 0
      vertex 250 0 0
    endloop
  endfacet
  facet normal -0 0 -1
    outer loop
      vertex 250 10 0
      vertex 237.5 0 0
      vertex 237.5 10 0
    endloop
  endfacet
  facet normal 0 -1 0
    outer loop
      vertex 237.5 0 0
      vertex 250 0 200
      vertex 237.5 0 200
    endloop
  endfacet
  facet normal 0 -1 -0
    outer loop
      vertex 250 0 200
      vertex 237.5 0 0
      vertex 250 0 0
    endloop
  endfacet
  facet normal -1 0 0
    outer loop
      vertex 237.5 20 0
      vertex 237.5 30 200
      vertex 237.5 30 0
    endloop
  endfacet
  facet normal -1 -0 0
    outer loop
      vertex 237.5 30 200
      vertex 237.5 20 0
      vertex 237.5 20 200
    endloop
  endfacet
  facet normal -0 0 1
    outer loop
      vertex 237.5 30 200
      vertex 250 20 200
      vertex 250 30 200
    endloop
  endfacet
  facet normal 0 0 1
    outer loop
      vertex 250 20 200
      vertex 237.5 30 200
      vertex 237.5 20 200
    endloop
  endfacet
  facet normal 1 -0 0
    outer loop
      vertex 250 20 200
      vertex 250 30 0
      vertex 250 30 200
    endloop
  endfacet
  facet normal 1 0 0
    outer loop
      vertex 250 30 0
      vertex 250 20 200
      vertex 250 20 0
    endloop
  endfacet
  facet normal 0 0 -1
    outer loop
      vertex 237.5 20 0
      vertex 250 30 0
      vertex 250 20 0
    endloop
  endfacet
  facet normal -0 0 -1
    outer loop
      vertex 250 30 0
      vertex 237.5 20 0
      vertex 237.5 30 0
    endloop
  endfacet
  facet normal 0 -1 0
    outer loop
      vertex 237.5 20 0
      vertex 250 20 200
      vertex 237.5 20 200
    endloop
  endfacet
  facet normal 0 -1 -0
    outer loop
      vertex 250 20 200
      vertex 237.5 20 0
      vertex 250 20 0
    endloop
  endfacet
  facet normal 0 1 -0
    outer loop
      vertex 250 30 0
      vertex 237.5 30 200
      vertex 250 30 200
    endloop
  endfacet
  facet normal 0 1 0
    outer loop
      vertex 237.5 30 200
      vertex 250 30 0
      vertex 237.5 30 0
    endloop
  endfacet
  facet normal -1 0 0
    outer loop
      vertex 237.5 40 0
      vertex 237.5 50 200
      vertex 237.5 50 0
    endloop
  endfacet
  facet normal -1 -0 0
    outer loop
      vertex 237.5 50 200
      vertex 237.5 40 0
      vertex 237.5 40 200
    endloop
  endfacet
  facet normal -0 0 1
    outer loop
      vertex 237.5 50 200
      vertex 250 40 200
      vertex 250 50 200
    endloop
  endfacet
  facet normal 0 0 1
    outer loop
      vertex 250 40 200
      vertex 237.5 50 200
      vertex 237.5 40 200
    endloop
  endfacet
  facet normal 1 -0 0
    outer loop
      vertex 250 40 200
      vertex 250 50 0
      vertex 250 50 200
    endloop
  endfacet
  facet normal 1 0 0
    outer loop
      vertex 250 50 0
      vertex 250 40 200
      vertex 250 40 0
    endloop
  endfacet
  facet normal 0 1 -0
    outer loop
      vertex 250 50 0
      vertex 237.5 50 200
      vertex 250 50 200
    endloop
  endfacet
  facet normal 0 1 0
    outer loop
      vertex 237.5 50 200
      vertex 250 50 0
      vertex 237.5 50 0
    endloop
  endfacet
  facet normal 0 0 -1
    outer loop
      vertex 237.5 40 0
      vertex 250 50 0
      vertex 250 40 0
    endloop
  endfacet
  facet normal -0 0 -1
    outer loop
      vertex 250 50 0
      vertex 237.5 40 0
      vertex 237.5 50 0
    endloop
  endfacet
  facet normal 0 -1 0
    outer loop
      vertex 237.5 40 0
      vertex 250 40 200
      vertex 237.5 40 200
    endloop
  endfacet
  facet normal 0 -1 -0
    outer loop
      vertex 250 40 200
      vertex 237.5 40 0
      vertex 250 40 0
    endloop
  endfacet
  facet normal -1 0 0
    outer loop
      vertex 237.5 60 0
      vertex 237.5 70 200
      vertex 237.5 70 0
    endloop
  endfacet
  facet normal -1 -0 0
    outer loop
      vertex 237.5 70 200
      vertex 237.5 60 0
      vertex 237.5 60 200
    endloop
  endfacet
  facet normal -0 0 1
    outer loop
      vertex 237.5 70 200
      vertex 250 60 200
      vertex 250 70 200
    endloop
  endfacet
  facet normal 0 0 1
    outer loop
      vertex 250 60 200
      vertex 237.5 70 200
      vertex 237.5 60 200
    endloop
  endfacet
  facet normal 1 -0 0
    outer loop
      vertex 250 60 200
      vertex 250 70 0
      vertex 250 70 200
    endloop
  endfacet
  facet normal 1 0 0
    outer loop
      vertex 250 70 0
      vertex 250 60 200
      vertex 250 60 0
    endloop
  endfacet
  facet normal 0 0 -1
    outer loop
      vertex 237.5 60 0
      vertex 250 70 0
      vertex 250 60 0
    endloop
  endfacet
  facet normal -0 0 -1
    outer loop
      vertex 250 70 0
      vertex 237.5 60 0
      vertex 237.5 70 0
    endloop
  endfacet
  facet normal 0 -1 0
    outer loop
      vertex 237.5 60 0
      vertex 250 60 200
      vertex 237.5 60 200
    endloop
  endfacet
  facet normal 0 -1 -0
    outer loop
      vertex 250 60 200
      vertex 237.5 60 0
      vertex 250 60 0
    endloop
  endfacet
  facet normal 0 1 -0
    outer loop
      vertex 250 70 0
      vertex 237.5 70 200
      vertex 250 70 200
    endloop
  endfacet
  facet normal 0 1 0
    outer loop
      vertex 237.5 70 200
      vertex 250 70 0
      vertex 237.5 70 0
    endloop
  endfacet
  facet normal -1 0 0
    outer loop
      vertex 237.5 80 0
      vertex 237.5 90 200
      vertex 237.5 90 0
    endloop
  endfacet
  facet normal -1 -0 0
    outer loop
      vertex 237.5 90 200
      vertex 237.5 80 0
      vertex 237.5 80 200
    endloop
  endfacet
  facet normal -0 0 1
    outer loop
      vertex 237.5 90 200
      vertex 250 80 200
      vertex 250 90 200
    endloop
  endfacet
  facet normal 0 0 1
    outer loop
      vertex 250 80 200
      vertex 237.5 90 200
      vertex 237.5 80 200
    endloop
  endfacet
  facet normal 1 -0 0
    outer loop
      vertex 250 80 200
      vertex 250 90 0
      vertex 250 90 200
    endloop
  endfacet
  facet normal 1 0 0
    outer loop
      vertex 250 90 0
      vertex 250 80 200
      vertex 250 80 0
    endloop
  endfacet
  facet normal 0 1 -0
    outer loop
      vertex 250 90 0
      vertex 237.5 90 200
      vertex 250 90 200
    endloop
  endfacet
  facet normal 0 1 0
    outer loop
      vertex 237.5 90 200
      vertex 250 90 0
      vertex 237.5 90 0
    endloop
  endfacet
  facet normal 0 0 -1
    outer loop
      vertex 237.5 80 0
      vertex 250 90 0
      vertex 250 80 0
    endloop
  endfacet
  facet normal -0 0 -1
    outer loop
      vertex 250 90 0
      vertex 237.5 80 0
      vertex 237.5 90 0
    endloop
  endfacet
  facet normal 0 -1 0
    outer loop
      vertex 237.5 80 0
      vertex 250 80 200
      vertex 237.5 80 200
    endloop
  endfacet
  facet normal 0 -1 -0
    outer loop
      vertex 250 80 200
      vertex 237.5 80 0
      vertex 250 80 0
    endloop
  endfacet
  facet normal -1 0 0
    outer loop
      vertex 237.5 100 0
      vertex 237.5 110 200
      vertex 237.5 110 0
    endloop
  endfacet
  facet normal -1 -0 0
    outer loop
      vertex 237.5 110 200
      vertex 237.5 100 0
      vertex 237.5 100 200
    endloop
  endfacet
  facet normal -0 0 1
    outer loop
      vertex 237.5 110 200
      vertex 250 100 200
      vertex 250 110 200
    endloop
  endfacet
  facet normal 0 0 1
    outer loop
      vertex 250 100 200
      vertex 237.5 110 200
      vertex 237.5 100 200
    endloop
  endfacet
  facet normal 1 -0 0
    outer loop
      vertex 250 100 200
      vertex 250 110 0
      vertex 250 110 200
    endloop
  endfacet
  facet normal 1 0 0
    outer loop
      vertex 250 110 0
      vertex 250 100 200
      vertex 250 100 0
    endloop
  endfacet
  facet normal 0 1 -0
    outer loop
      vertex 250 110 0
      vertex 237.5 110 200
      vertex 250 110 200
    endloop
  endfacet
  facet normal 0 1 0
    outer loop
      vertex 237.5 110 200
      vertex 250 110 0
      vertex 237.5 110 0
    endloop
  endfacet
  facet normal 0 0 -1
    outer loop
      vertex 237.5 100 0
      vertex 250 110 0
      vertex 250 100 0
    endloop
  endfacet
  facet normal -0 0 -1
    outer loop
      vertex 250 110 0
      vertex 237.5 100 0
      vertex 237.5 110 0
    endloop
  endfacet
  facet normal 0 -1 0
    outer loop
      vertex 237.5 100 0
      vertex 250 100 200
      vertex 237.5 100 200
    endloop
  endfacet
  facet normal 0 -1 -0
    outer loop
      vertex 250 100 200
      vertex 237.5 100 0
      vertex 250 100 0
    endloop
  endfacet
  facet normal -1 0 0
    outer loop
      vertex 237.5 120 0
      vertex 237.5 130 200
      vertex 237.5 130 0
    endloop
  endfacet
  facet normal -1 -0 0
    outer loop
      vertex 237.5 130 200
      vertex 237.5 120 0
      vertex 237.5 120 200
    endloop
  endfacet
  facet normal -0 0 1
    outer loop
      vertex 237.5 130 200
      vertex 250 120 200
      vertex 250 130 200
    endloop
  endfacet
  facet normal 0 0 1
    outer loop
      vertex 250 120 200
      vertex 237.5 130 200
      vertex 237.5 120 200
    endloop
  endfacet
  facet normal 1 -0 0
    outer loop
      vertex 250 120 200
      vertex 250 130 0
      vertex 250 130 200
    endloop
  endfacet
  facet normal 1 0 0
    outer loop
      vertex 250 130 0
      vertex 250 120 200
      vertex 250 120 0
    endloop
  endfacet
  facet normal 0 1 -0
    outer loop
      vertex 250 130 0
      vertex 237.5 130 200
      vertex 250 130 200
    endloop
  endfacet
  facet normal 0 1 0
    outer loop
      vertex 237.5 130 200
      vertex 250 130 0
      vertex 237.5 130 0
    endloop
  endfacet
  facet normal 0 0 -1
    outer loop
      vertex 237.5 120 0
      vertex 250 130 0
      vertex 250 120 0
    endloop
  endfacet
  facet normal -0 0 -1
    outer loop
      vertex 250 130 0
      vertex 237.5 120 0
      vertex 237.5 130 0
    endloop
  endfacet
  facet normal 0 -1 0
    outer loop
      vertex 237.5 120 0
      vertex 250 120 200
      vertex 237.5 120 200
    endloop
  endfacet
  facet normal 0 -1 -0
    outer loop
      vertex 250 120 200
      vertex 237.5 120 0
      vertex 250 120 0
    endloop
  endfacet
  facet normal -1 0 0
    outer loop
      vertex 237.5 140 0
      vertex 237.5 150 200
      vertex 237.5 150 0
    endloop
  endfacet
  facet normal -1 -0 0
    outer loop
      vertex 237.5 150 200
      vertex 237.5 140 0
      vertex 237.5 140 200
    endloop
  endfacet
  facet normal -0 0 1
    outer loop
      vertex 237.5 150 200
      vertex 250 140 200
      vertex 250 150 200
    endloop
  endfacet
  facet normal 0 0 1
    outer loop
      vertex 250 140 200
      vertex 237.5 150 200
      vertex 237.5 140 200
    endloop
  endfacet
  facet normal 1 -0 0
    outer loop
      vertex 250 140 200
      vertex 250 150 0
      vertex 250 150 200
    endloop
  endfacet
  facet normal 1 0 0
    outer loop
      vertex 250 150 0
      vertex 250 140 200
      vertex 250 140 0
    endloop
  endfacet
  facet normal 0 1 -0
    outer loop
      vertex 250 150 0
      vertex 237.5 150 200
      vertex 250 150 200
    endloop
  endfacet
  facet normal 0 1 0
    outer loop
      vertex 237.5 150 200
      vertex 250 150 0
      vertex 237.5 150 0
    endloop
  endfacet
  facet normal 0 0 -1
    outer loop
      vertex 237.5 140 0
      vertex 250 150 0
      vertex 250 140 0
    endloop
  endfacet
  facet normal -0 0 -1
    outer loop
      vertex 250 150 0
      vertex 237.5 140 0
      vertex 237.5 150 0
    endloop
  endfacet
  facet normal 0 -1 0
    outer loop
      vertex 237.5 140 0
      vertex 250 140 200
      vertex 237.5 140 200
    endloop
  endfacet
  facet normal 0 -1 -0
    outer loop
      vertex 250 140 200
      vertex 237.5 140 0
      vertex 250 140 0
    endloop
  endfacet
  facet normal -1 0 0
    outer loop
      vertex 237.5 160 0
      vertex 237.5 170 200
      vertex 237.5 170 0
    endloop
  endfacet
  facet normal -1 -0 0
    outer loop
      vertex 237.5 170 200
      vertex 237.5 160 0
      vertex 237.5 160 200
    endloop
  endfacet
  facet normal -0 0 1
    outer loop
      vertex 237.5 170 200
      vertex 250 160 200
      vertex 250 170 200
    endloop
  endfacet
  facet normal 0 0 1
    outer loop
      vertex 250 160 200
      vertex 237.5 170 200
      vertex 237.5 160 200
    endloop
  endfacet
  facet normal 1 -0 0
    outer loop
      vertex 250 160 200
      vertex 250 170 0
      vertex 250 170 200
    endloop
  endfacet
  facet normal 1 0 0
    outer loop
      vertex 250 170 0
      vertex 250 160 200
      vertex 250 160 0
    endloop
  endfacet
  facet normal 0 0 -1
    outer loop
      vertex 237.5 160 0
      vertex 250 170 0
      vertex 250 160 0
    endloop
  endfacet
  facet normal -0 0 -1
    outer loop
      vertex 250 170 0
      vertex 237.5 160 0
      vertex 237.5 170 0
    endloop
  endfacet
  facet normal 0 -1 0
    outer loop
      vertex 237.5 160 0
      vertex 250 160 200
      vertex 237.5 160 200
    endloop
  endfacet
  facet normal 0 -1 -0
    outer loop
      vertex 250 160 200
      vertex 237.5 160 0
      vertex 250 160 0
    endloop
  endfacet
  facet normal 0 1 -0
    outer loop
      vertex 250 170 0
      vertex 237.5 170 200
      vertex 250 170 200
    endloop
  endfacet
  facet normal 0 1 0
    outer loop
      vertex 237.5 170 200
      vertex 250 170 0
      vertex 237.5 170 0
    endloop
  endfacet
  facet normal -1 0 0
    outer loop
      vertex 237.5 180 0
      vertex 237.5 190 200
      vertex 237.5 190 0
    endloop
  endfacet
  facet normal -1 -0 0
    outer loop
      vertex 237.5 190 200
      vertex 237.5 180 0
      vertex 237.5 180 200
    endloop
  endfacet
  facet normal -0 0 1
    outer loop
      vertex 237.5 190 200
      vertex 250 180 200
      vertex 250 190 200
    endloop
  endfacet
  facet normal 0 0 1
    outer loop
      vertex 250 180 200
      vertex 237.5 190 200
      vertex 237.5 180 200
    endloop
  endfacet
  facet normal 1 -0 0
    outer loop
      vertex 250 180 200
      vertex 250 190 0
      vertex 250 190 200
    endloop
  endfacet
  facet normal 1 0 0
    outer loop
      vertex 250 190 0
      vertex 250 180 200
      vertex 250 180 0
    endloop
  endfacet
  facet normal 0 1 -0
    outer loop
      vertex 250 190 0
      vertex 237.5 190 200
      vertex 250 190 200
    endloop
  endfacet
  facet normal 0 1 0
    outer loop
      vertex 237.5 190 200
      vertex 250 190 0
      vertex 237.5 190 0
    endloop
  endfacet
  facet normal 0 0 -1
    outer loop
      vertex 237.5 180 0
      vertex 250 190 0
      vertex 250 180 0
    endloop
  endfacet
  facet normal -0 0 -1
    outer loop
      vertex 250 190 0
      vertex 237.5 180 0
      vertex 237.5 190 0
    endloop
  endfacet
  facet normal 0 -1 0
    outer loop
      vertex 237.5 180 0
      vertex 250 180 200
      vertex 237.5 180 200
    endloop
  endfacet
  facet normal 0 -1 -0
    outer loop
      vertex 250 180 200
      vertex 237.5 180 0
      vertex 250 180 0
    endloop
  endfacet
endsolid OpenSCAD_Model
